<?xml version="1.0" standalone="no"?>
<!DOCTYPE svg PUBLIC "-//W3C//DTD SVG 20010904//EN"
 "http://www.w3.org/TR/2001/REC-SVG-20010904/DTD/svg10.dtd">
<svg version="1.0" xmlns="http://www.w3.org/2000/svg"
 width="570.000000pt" height="570.000000pt" viewBox="0 0 570.000000 570.000000"
 preserveAspectRatio="xMidYMid meet">
<metadata>
Created by potrace 1.14, written by Peter Selinger 2001-2017
</metadata>
<g transform="translate(0.000000,570.000000) scale(0.100000,-0.100000)"
fill="#000000" stroke="none">
<path d="M2681 5616 c-19 -15 -22 -16 -12 -3 12 15 11 16 -20 6 -19 -6 -42
-15 -53 -20 -10 -6 -16 -6 -12 -1 3 5 -1 9 -9 9 -8 0 -12 -4 -10 -7 3 -4 -10
-10 -28 -14 -25 -5 -29 -9 -17 -16 8 -5 10 -10 5 -10 -6 0 -16 5 -23 12 -8 8
-12 8 -12 1 0 -6 -14 -16 -31 -22 -17 -6 -28 -14 -25 -19 2 -4 -4 -9 -15 -9
-12 -1 -17 2 -13 10 4 7 -5 1 -19 -12 -14 -13 -25 -26 -24 -30 1 -3 -2 -8 -8
-9 -29 -11 -45 -24 -39 -34 4 -6 3 -8 -4 -5 -16 11 -41 -3 -35 -19 4 -10 0
-12 -11 -8 -9 4 -16 2 -14 -3 2 -5 -10 -21 -26 -36 -16 -15 -25 -27 -21 -27 4
0 -4 -11 -19 -25 -23 -21 -31 -23 -48 -14 -18 10 -20 9 -15 -4 4 -11 2 -14 -8
-10 -8 3 -13 9 -10 13 5 8 -55 4 -63 -5 -3 -2 -14 0 -25 6 -15 9 -18 8 -12 -2
6 -9 3 -11 -8 -6 -10 4 -17 1 -17 -6 0 -8 -4 -6 -10 3 -9 13 -14 7 -11 -13 1
-10 -22 -4 -31 8 -5 6 -8 5 -8 -2 0 -7 -7 -10 -17 -6 -12 5 -14 3 -8 -8 7 -11
5 -11 -10 1 -17 14 -18 13 -12 -3 4 -11 3 -16 -4 -12 -5 4 -15 2 -22 -3 -7 -5
-20 -8 -29 -7 -10 2 -15 -2 -11 -11 3 -9 -2 -12 -16 -9 -12 2 -21 0 -21 -5 0
-5 -11 -12 -25 -16 -14 -3 -22 -10 -19 -15 3 -5 -4 -9 -16 -9 -12 0 -18 -4
-15 -10 3 -5 1 -10 -4 -10 -6 0 -21 -11 -33 -25 -12 -14 -28 -23 -35 -21 -12
5 -18 -13 -14 -37 1 -5 -3 -6 -9 -2 -5 3 -10 1 -10 -6 0 -7 -3 -9 -7 -5 -4 3
-13 -6 -20 -21 -7 -16 -11 -20 -8 -10 3 10 1 16 -4 13 -5 -3 -12 -18 -15 -32
-8 -31 -30 -56 -42 -46 -5 4 -2 -2 6 -12 8 -11 10 -17 4 -13 -6 3 -16 -5 -22
-18 -7 -14 -17 -25 -23 -25 -8 0 -8 -5 1 -16 11 -12 11 -15 -1 -12 -8 2 -13
-3 -11 -10 1 -7 -4 -22 -12 -34 -8 -11 -12 -27 -9 -34 3 -8 1 -14 -4 -14 -5 0
-9 -22 -10 -48 -2 -44 -21 -115 -22 -84 -1 11 -4 10 -16 -1 -8 -9 -24 -13 -36
-10 -16 5 -20 3 -14 -6 6 -10 2 -11 -15 -6 -15 5 -20 4 -16 -4 4 -7 1 -9 -7
-5 -8 3 -18 0 -22 -5 -3 -6 -11 -9 -16 -6 -5 4 -9 1 -9 -5 0 -6 -5 -8 -12 -4
-8 5 -9 2 -4 -11 5 -15 4 -16 -9 -5 -12 10 -15 10 -15 0 0 -8 -3 -10 -7 -7 -3
4 -12 -1 -20 -11 -8 -9 -12 -11 -8 -5 4 9 1 11 -9 7 -9 -3 -13 -10 -10 -15 3
-5 -2 -9 -10 -9 -9 0 -16 -5 -16 -11 0 -5 -4 -8 -9 -5 -5 3 -12 -1 -15 -10 -4
-10 -12 -14 -22 -10 -14 5 -15 4 -4 -9 11 -13 10 -14 -2 -10 -9 4 -18 -1 -22
-10 -3 -9 -10 -13 -16 -10 -5 3 -10 -1 -10 -9 0 -9 -4 -16 -10 -16 -5 0 -10
-7 -10 -15 0 -9 -6 -12 -17 -8 -10 3 -15 3 -11 -1 8 -10 -14 -36 -24 -29 -5 2
-8 -3 -8 -11 0 -9 -5 -16 -11 -16 -6 0 -9 -7 -6 -14 4 -10 1 -13 -7 -10 -14 6
-30 -22 -21 -37 4 -5 0 -6 -8 -3 -8 3 -18 0 -23 -7 -4 -8 -3 -10 4 -5 20 12
13 -5 -10 -26 -13 -11 -16 -17 -8 -13 10 4 9 2 -2 -8 -10 -8 -15 -17 -11 -20
3 -4 -2 -9 -11 -13 -9 -3 -16 -10 -16 -16 0 -5 6 -6 13 -2 6 4 2 -3 -11 -15
-12 -12 -20 -26 -17 -32 4 -5 2 -9 -4 -9 -6 0 -7 -7 -4 -17 4 -9 2 -14 -3 -10
-6 3 -9 -7 -8 -23 1 -16 -1 -28 -5 -27 -3 1 -6 -1 -6 -4 0 -3 -7 -14 -15 -24
-9 -11 -10 -16 -2 -11 6 4 12 2 12 -3 0 -6 -4 -11 -10 -11 -5 0 -7 -7 -4 -15
4 -8 1 -15 -6 -15 -6 0 -8 -5 -5 -10 4 -6 11 -7 17 -4 6 4 4 -3 -5 -16 -12
-18 -14 -27 -5 -37 9 -11 7 -12 -8 -6 -17 6 -17 5 -5 -10 9 -12 10 -17 2 -17
-8 0 -9 -5 -3 -16 5 -9 7 -25 5 -35 -3 -11 0 -26 7 -34 11 -13 10 -14 -3 -9
-12 4 -14 1 -10 -15 3 -11 10 -18 15 -15 6 4 5 -3 -1 -15 -7 -11 -8 -21 -2
-21 12 0 9 -33 -4 -42 -6 -4 -2 -8 9 -8 13 0 17 -5 13 -20 -3 -11 -1 -20 4
-20 5 0 9 -5 9 -11 0 -5 -6 -7 -12 -3 -9 5 -9 3 1 -9 7 -9 17 -15 21 -12 4 2
5 -7 2 -20 -2 -15 0 -25 7 -25 7 0 9 -5 5 -12 -4 -6 1 -17 11 -24 10 -8 16
-17 12 -20 -4 -4 7 -17 23 -29 16 -12 27 -25 23 -28 -3 -4 3 -7 15 -7 11 0 26
-8 32 -17 11 -17 11 -17 6 0 -5 16 -4 16 21 0 15 -10 24 -13 20 -7 -4 7 0 15
9 18 8 3 12 2 9 -4 -3 -6 -1 -10 4 -10 6 0 11 5 11 10 0 6 3 9 8 9 22 -4 34 3
29 15 -4 11 -1 13 10 9 12 -5 14 -3 8 7 -6 10 -4 12 10 6 14 -5 16 -4 6 8 -9
11 -8 15 4 20 8 3 15 10 15 16 0 6 -4 8 -10 5 -5 -3 -10 -1 -10 4 0 6 4 11 8
11 8 0 7 29 0 93 -2 16 -12 22 -32 18 -5 -1 -4 5 3 13 14 16 2 50 -21 59 -8 3
-5 6 5 6 17 1 17 2 3 17 -9 8 -16 21 -16 27 0 7 5 6 11 -3 9 -12 10 -11 4 5
-19 53 -23 75 -14 70 12 -8 11 2 -2 27 -9 16 -8 19 2 13 9 -6 11 -3 6 8 -3 9
-2 19 3 22 15 9 12 27 -3 19 -6 -4 -4 1 5 12 14 16 15 23 5 34 -7 8 -8 11 -1
7 15 -9 26 17 17 40 -4 11 -3 14 5 9 8 -5 12 0 12 13 0 12 5 21 10 21 6 0 10
5 10 11 0 5 -6 7 -12 4 -7 -4 -5 0 6 9 10 8 15 20 10 27 -5 8 -3 10 5 5 8 -5
14 0 18 13 3 12 10 21 15 21 5 0 6 5 3 10 -3 6 -1 10 5 10 6 0 8 4 5 10 -4 6
1 7 11 3 11 -4 15 -2 11 4 -4 6 5 18 19 27 13 10 30 28 36 41 6 14 15 22 19
19 5 -3 9 0 9 6 0 6 5 8 10 5 6 -3 10 -1 10 4 0 6 7 11 16 11 11 0 14 5 10 16
-5 14 -4 15 9 4 14 -11 19 -7 16 12 0 4 9 10 22 14 12 3 31 14 41 23 13 10 17
11 11 2 -5 -9 -3 -12 6 -9 8 3 13 10 12 16 -2 6 4 9 12 6 8 -4 15 -1 15 5 0 6
5 11 11 11 5 0 7 -4 4 -10 -3 -6 1 -7 9 -4 9 3 13 11 9 17 -3 5 -1 7 5 3 6 -3
14 -2 17 4 5 8 11 7 21 -1 11 -9 14 -8 14 7 0 15 2 16 9 5 5 -8 14 -10 22 -5
18 11 49 13 43 2 -3 -4 0 -8 5 -8 6 0 11 6 11 13 0 8 3 8 8 2 8 -12 27 -13 38
-3 4 4 13 3 21 -3 7 -6 13 -7 13 -2 0 5 7 10 15 10 8 0 12 -5 8 -10 -3 -5 3
-7 13 -3 11 3 26 1 34 -4 9 -5 19 -5 27 2 11 8 12 7 7 -7 -5 -13 -4 -16 4 -11
7 4 12 2 12 -6 0 -9 3 -9 10 2 6 10 10 11 10 3 0 -7 5 -13 11 -13 5 0 7 6 3
13 -5 8 -2 7 9 -2 10 -8 15 -16 12 -19 -5 -5 33 -36 48 -38 4 -1 10 -3 15 -4
4 -1 10 -2 15 -1 4 0 7 -3 7 -8 0 -4 12 -7 28 -7 15 1 33 -3 39 -7 9 -6 15 -4
19 7 3 9 12 16 19 16 7 0 19 8 26 18 12 15 12 16 -1 7 -9 -5 -4 1 10 14 14 13
19 20 11 16 -9 -5 -8 1 4 19 14 20 14 26 4 26 -11 0 -11 2 1 10 9 6 11 10 3
10 -7 0 -10 7 -6 17 5 12 3 14 -8 8 -11 -6 -12 -5 -1 6 14 16 16 33 2 24 -5
-3 -10 0 -10 7 0 8 -9 20 -19 28 -11 7 -18 17 -15 22 3 4 0 8 -6 8 -16 0 -40
26 -32 34 3 4 -1 4 -11 0 -11 -4 -17 -1 -17 7 0 7 -3 9 -6 6 -4 -4 -15 3 -25
15 -12 13 -19 16 -19 8 0 -9 -6 -7 -16 6 -8 10 -12 12 -8 4 7 -13 5 -13 -8 -2
-13 10 -17 10 -21 0 -4 -9 -6 -7 -6 4 -1 9 -6 20 -13 24 -7 5 -8 3 -3 -7 6
-10 3 -9 -11 2 -10 9 -25 14 -32 12 -7 -3 -20 1 -29 9 -9 7 -14 8 -10 2 4 -7
0 -14 -8 -18 -8 -3 -17 -1 -20 5 -4 5 -11 7 -16 4 -5 -4 -9 2 -9 12 0 15 -2
16 -10 3 -5 -8 -10 -13 -10 -10 0 3 -4 20 -9 38 -6 20 -6 30 0 27 8 -6 14 16
10 39 -1 4 3 14 9 20 5 7 7 16 3 20 -4 4 0 4 9 1 9 -4 18 0 22 10 4 11 2 14
-7 9 -6 -4 -4 2 7 14 10 12 23 19 27 16 5 -3 6 3 2 13 -3 10 -3 15 1 12 4 -4
23 8 41 27 19 19 41 34 50 34 9 0 18 7 21 15 4 8 10 15 16 15 5 0 6 -6 3 -12
-4 -7 0 -5 8 4 8 10 17 15 20 11 4 -3 7 -1 7 6 0 7 4 10 9 7 5 -4 12 0 14 6 4
10 6 10 6 0 1 -8 6 -10 14 -5 16 10 128 13 122 3 -3 -4 2 -11 11 -14 23 -9 26
-8 18 7 -4 6 5 1 21 -13 16 -14 25 -18 21 -10 -4 8 0 6 8 -4 12 -15 16 -16 16
-5 0 11 2 12 9 0 6 -10 10 -10 16 -1 6 9 10 9 16 -1 8 -12 11 -11 19 1 5 8 10
11 10 5 0 -5 5 -2 11 8 5 9 17 17 24 17 8 0 15 7 15 15 0 8 6 14 13 13 6 -2
11 3 9 10 -1 7 7 25 18 39 15 20 17 29 9 40 -9 11 -8 12 5 7 15 -6 21 5 17 29
-1 5 3 6 9 2 5 -3 13 1 16 9 3 9 12 16 20 16 8 0 14 5 14 10 0 6 9 19 20 30
11 11 20 17 20 13 0 -3 12 7 26 23 15 16 23 22 19 14 -5 -12 -4 -12 7 1 7 9
19 14 26 12 6 -3 12 0 12 7 0 6 4 9 9 6 5 -3 12 1 15 10 5 13 9 14 21 4 12
-10 16 -9 21 3 3 9 12 13 21 10 10 -4 14 -2 10 4 -3 5 0 10 8 10 8 0 15 -5 15
-11 0 -5 7 -1 16 10 8 10 13 13 9 7 -3 -7 -2 -13 4 -13 5 0 12 6 14 13 4 8 6
8 6 -2 1 -11 5 -10 17 5 8 10 13 14 10 7 -4 -6 -2 -14 4 -18 5 -3 10 -2 10 2
0 10 41 10 58 -1 7 -4 12 -3 12 2 0 13 63 2 83 -16 15 -14 17 -13 17 4 1 18 1
18 11 1 6 -9 14 -15 20 -12 5 4 9 2 9 -3 0 -6 7 -13 16 -16 10 -4 13 -2 9 7
-4 6 0 4 8 -5 8 -10 17 -15 20 -11 4 3 7 1 7 -5 0 -6 7 -9 17 -5 10 4 14 2 10
-4 -3 -5 10 -19 31 -29 20 -11 46 -34 57 -52 11 -17 26 -31 33 -32 11 0 17
-14 13 -34 -1 -5 5 -3 14 4 13 11 15 10 9 -4 -4 -11 0 -22 12 -31 11 -8 15
-15 10 -15 -6 0 -1 -7 10 -16 10 -8 13 -13 7 -9 -9 4 -11 1 -7 -9 3 -9 11 -16
16 -16 7 0 6 -5 -1 -14 -8 -10 -8 -16 3 -25 8 -6 12 -21 9 -31 -3 -13 0 -20 8
-20 11 0 11 -2 -1 -10 -12 -8 -12 -10 -1 -10 11 0 11 -3 1 -15 -9 -10 -9 -19
-2 -27 13 -16 13 -30 1 -45 -7 -8 -3 -18 13 -34 13 -12 17 -19 11 -15 -8 5
-13 1 -13 -10 0 -10 3 -14 6 -11 4 4 20 -8 37 -26 16 -17 26 -25 21 -17 -5 9
-1 7 9 -3 12 -13 17 -15 17 -6 0 9 3 10 8 4 4 -6 14 -10 22 -9 8 0 23 2 33 2
11 1 15 7 11 14 -4 7 -3 8 5 4 12 -8 61 36 61 55 0 6 4 8 9 5 5 -3 12 1 15 10
4 10 2 13 -7 8 -9 -6 -9 -5 0 8 7 8 10 18 6 21 -3 4 -1 7 7 7 9 0 10 3 1 13
-6 8 -8 16 -5 20 10 9 12 57 3 63 -5 3 -5 13 1 23 5 10 6 22 2 26 -4 4 5 0 20
-9 32 -21 38 -22 49 -4 7 10 9 10 9 1 0 -7 9 -13 20 -13 11 0 20 -5 20 -11 0
-6 9 -9 19 -6 12 3 18 0 15 -7 -2 -6 5 -17 17 -24 15 -10 19 -10 14 -1 -5 8
-4 10 3 5 7 -4 12 -14 12 -22 0 -8 5 -12 10 -9 6 3 10 1 10 -5 0 -6 5 -8 12
-4 7 4 8 3 4 -4 -4 -7 3 -17 18 -23 14 -7 23 -16 20 -20 -3 -5 8 -21 23 -36
15 -14 22 -23 15 -19 -11 7 -11 4 0 -13 7 -12 15 -21 19 -21 3 0 6 -7 7 -15 1
-8 3 -22 4 -30 1 -8 8 -17 16 -20 11 -4 12 -8 2 -20 -10 -12 -9 -15 4 -15 24
0 -30 -53 -58 -57 -37 -5 -48 -12 -40 -25 5 -8 0 -7 -11 2 -17 14 -18 13 -12
-4 6 -15 5 -17 -6 -7 -11 9 -17 7 -28 -6 -12 -14 -12 -16 0 -8 9 5 12 4 7 -3
-4 -6 -14 -8 -23 -5 -11 4 -14 3 -9 -5 6 -11 1 -14 -20 -11 -3 0 -12 -8 -21
-18 -8 -10 -11 -11 -7 -3 4 9 -2 7 -13 -5 -11 -11 -19 -23 -16 -27 2 -5 -3 -8
-11 -8 -9 0 -16 -7 -16 -16 0 -9 -5 -12 -12 -8 -7 5 -9 2 -5 -9 3 -9 0 -18 -9
-21 -9 -3 -12 -10 -9 -16 3 -5 2 -10 -4 -10 -5 0 -8 -8 -6 -17 1 -10 -2 -26
-7 -37 -8 -14 -7 -17 2 -11 8 5 11 3 8 -6 -3 -8 2 -23 11 -33 9 -11 11 -16 3
-12 -11 7 -11 4 0 -13 7 -12 19 -21 26 -21 7 0 15 -6 18 -14 3 -8 12 -17 20
-20 10 -4 13 -2 8 7 -6 9 -5 9 7 0 17 -14 60 -14 52 0 -3 5 0 8 8 5 8 -3 22 6
32 18 11 15 24 21 34 17 11 -4 14 -3 9 5 -4 7 4 17 21 24 15 7 34 18 41 25 8
7 19 10 25 6 7 -4 8 0 3 13 -5 15 -4 16 5 7 12 -12 42 -6 34 7 -2 4 7 5 20 2
15 -2 25 0 25 7 0 6 5 11 11 11 5 0 7 -5 3 -11 -3 -6 5 -3 20 6 17 11 26 13
26 6 0 -7 4 -10 9 -6 5 3 13 1 16 -5 5 -8 11 -7 21 1 7 6 20 9 27 6 8 -3 20
-2 27 3 7 4 24 2 38 -6 20 -10 28 -11 34 -1 5 8 8 5 8 -8 0 -17 2 -17 10 -5 6
10 10 11 10 2 0 -6 3 -11 8 -10 15 3 62 -15 62 -24 0 -6 8 -4 17 3 9 8 14 9
11 4 -4 -6 -3 -17 3 -25 6 -11 9 -12 9 -2 0 7 5 10 10 7 6 -4 8 -10 5 -15 -3
-4 2 -10 9 -13 8 -3 17 -1 20 6 2 7 5 2 5 -10 1 -12 9 -24 21 -28 11 -3 20
-13 20 -21 0 -8 6 -14 13 -14 13 0 43 -40 39 -52 -1 -4 6 -4 15 -1 10 4 14 2
10 -4 -4 -6 0 -16 8 -23 8 -7 15 -18 15 -25 0 -19 26 -66 33 -58 4 3 4 -5 2
-18 -3 -13 3 -31 13 -43 9 -11 12 -16 5 -12 -9 5 -9 -1 0 -26 12 -31 14 -94 4
-105 -3 -2 -1 -18 3 -34 5 -18 5 -27 -1 -24 -5 4 -9 2 -9 -4 0 -5 6 -12 13
-14 9 -4 9 -6 0 -6 -7 -1 -10 -8 -6 -18 4 -11 3 -14 -5 -9 -8 5 -12 -3 -13
-23 -2 -45 -2 -46 -21 -65 -21 -20 -23 -30 -5 -20 6 4 4 -1 -5 -12 -13 -14
-14 -23 -6 -38 8 -14 7 -17 -1 -12 -6 4 -11 0 -11 -9 0 -10 5 -14 13 -9 9 5 9
4 0 -6 -14 -15 -6 -43 10 -33 6 4 8 0 4 -10 -4 -10 -2 -16 6 -14 7 1 11 -3 10
-9 -1 -7 9 -15 23 -18 14 -4 23 -10 20 -14 -2 -4 4 -9 15 -9 10 -1 19 4 20 10
0 7 4 3 9 -8 5 -11 9 -14 9 -7 1 6 6 12 12 12 5 0 7 -4 4 -10 -10 -15 5 -12
22 6 9 8 22 13 29 10 13 -5 18 6 15 27 0 4 2 6 6 6 20 -3 34 2 28 11 -3 6 -1
10 4 10 6 0 10 6 9 13 -2 6 2 11 9 10 7 -2 10 6 8 17 -2 11 0 20 5 20 4 0 11
7 14 16 4 10 2 13 -7 8 -9 -6 -9 -5 0 8 7 8 9 19 5 23 -4 5 -2 5 4 2 16 -9 25
18 11 32 -9 9 -8 11 6 5 13 -5 16 -2 11 10 -3 9 0 24 7 33 8 9 9 14 2 10 -7
-5 -9 0 -6 13 3 11 10 20 15 20 6 0 6 5 -1 14 -9 11 -8 15 6 20 14 6 15 9 4
15 -10 7 -11 13 -2 30 9 16 9 21 0 21 -7 0 -8 4 -2 13 8 10 10 32 3 40 -1 1
-3 14 -4 29 0 14 -4 29 -8 33 -4 4 -3 17 2 30 6 17 5 27 -5 35 -8 6 -12 17 -9
25 3 7 0 16 -6 20 -6 4 -8 16 -4 27 4 14 2 18 -5 14 -7 -4 -11 1 -11 13 0 30
-11 52 -23 44 -6 -3 -7 -1 -3 5 7 12 -10 52 -28 64 -7 5 -6 8 4 8 13 0 13 1 0
10 -8 5 -15 15 -15 22 -1 7 -6 12 -13 11 -7 -2 -9 4 -5 14 4 11 3 14 -5 9 -8
-5 -12 0 -12 13 0 11 -11 28 -25 39 -13 11 -21 22 -18 26 3 3 1 6 -6 6 -7 0
-10 4 -6 9 3 5 -4 12 -15 16 -11 3 -25 15 -31 26 -5 11 -15 16 -21 13 -6 -4
-8 -3 -5 3 4 5 -5 20 -18 31 -16 14 -25 17 -26 9 0 -6 -5 -2 -11 11 -6 12 -17
22 -25 22 -8 0 -12 4 -9 9 3 5 -1 12 -10 15 -10 4 -13 2 -8 -7 4 -6 -4 0 -19
16 -14 15 -35 27 -47 27 -11 0 -20 5 -20 11 0 5 -4 7 -10 4 -5 -3 -10 -1 -10
6 0 6 -8 9 -20 6 -11 -3 -18 -1 -14 4 3 5 -1 10 -8 10 -7 1 -20 2 -28 3 -8 1
-21 -3 -28 -8 -9 -6 -11 -4 -6 9 5 12 4 16 -4 11 -6 -3 -13 -2 -16 2 -3 5 -21
8 -41 6 -19 -1 -35 2 -35 7 0 6 -4 8 -9 5 -5 -3 -12 1 -15 10 -3 8 -2 13 3 10
5 -4 7 3 4 14 -3 11 -10 17 -16 13 -7 -4 -8 0 -4 11 4 10 7 20 7 22 0 3 6 2
13 -2 6 -4 5 1 -4 12 -9 10 -14 25 -11 33 3 8 0 11 -7 7 -7 -5 -9 -1 -5 9 4 8
2 21 -4 28 -6 6 -12 21 -14 32 -1 11 -9 26 -16 33 -7 8 -9 18 -6 24 4 7 2 8
-4 4 -11 -6 -16 5 -13 26 0 4 -8 12 -19 18 -11 6 -20 17 -20 25 0 8 -4 15 -10
15 -5 0 -10 6 -10 14 0 8 -7 17 -16 20 -8 3 -12 11 -8 17 4 7 3 9 -3 6 -6 -4
-14 0 -17 9 -4 9 -13 14 -22 10 -9 -3 -12 -2 -8 5 8 14 -33 52 -48 43 -6 -4
-8 -3 -5 3 4 6 0 14 -9 17 -8 3 -12 11 -8 17 4 8 3 9 -4 5 -7 -4 -12 -2 -12 3
0 6 -7 11 -15 11 -8 0 -15 5 -15 10 0 6 -9 10 -20 10 -11 0 -20 5 -20 11 0 6
-7 8 -17 5 -10 -4 -14 -4 -10 0 4 4 -5 15 -20 25 -19 13 -32 15 -45 8 -14 -7
-18 -6 -16 3 2 8 -5 12 -16 10 -13 -2 -16 1 -10 10 6 10 5 11 -7 1 -9 -8 -19
-9 -25 -3 -5 5 -27 10 -49 12 -22 2 -47 8 -54 13 -10 5 -12 4 -7 -3 4 -7 2
-12 -3 -12 -6 0 -11 6 -11 13 0 8 -3 8 -8 2 -8 -12 -22 -13 -39 -2 -8 5 -13 4
-13 -2 0 -6 -5 -11 -11 -11 -5 0 -8 4 -5 8 3 5 -4 14 -14 22 -10 8 -16 18 -13
23 3 6 2 7 -4 4 -6 -4 -21 6 -34 21 -19 21 -20 23 -4 13 11 -8 -1 6 -27 31
-27 25 -48 51 -48 58 0 6 -4 8 -10 5 -5 -3 -10 -1 -10 4 0 6 -6 10 -12 9 -7
-2 -12 3 -10 10 1 8 -2 11 -8 7 -5 -3 -10 -1 -10 6 0 7 -3 10 -6 6 -4 -3 -12
-1 -20 6 -32 29 -40 33 -53 29 -9 -3 -11 0 -6 8 6 10 4 12 -8 7 -9 -3 -16 -3
-16 1 3 19 -2 26 -10 13 -7 -11 -11 -9 -21 8 -8 16 -15 20 -24 12 -9 -8 -18
-6 -32 5 -10 8 -13 12 -5 8 10 -5 12 -3 6 5 -5 9 -10 10 -18 2 -14 -14 -30
-14 -21 0 4 7 1 10 -7 7 -8 -3 -20 2 -27 11 -8 9 -11 10 -7 4 3 -7 2 -13 -2
-13 -5 0 -15 6 -22 13 -10 9 -12 9 -7 0 5 -8 -2 -8 -21 2 -16 9 -31 11 -38 5
-6 -5 -16 -5 -23 -1 -7 4 -35 5 -62 1 -27 -3 -56 -2 -65 2 -9 6 -15 5 -15 -2
0 -5 -5 -10 -11 -10 -5 0 -8 4 -5 8 10 16 -38 7 -63 -12z m-771 -1266 c0 -5
-2 -10 -4 -10 -3 0 -8 5 -11 10 -3 6 -1 10 4 10 6 0 11 -4 11 -10z m3020 -364
c0 -3 -4 -8 -10 -11 -5 -3 -10 -1 -10 4 0 6 5 11 10 11 6 0 10 -2 10 -4z"/>
<path d="M2774 5133 c4 -8 1 -13 -8 -13 -9 0 -15 -6 -13 -12 1 -7 -4 -12 -11
-10 -8 1 -11 -2 -7 -8 3 -5 1 -10 -6 -10 -7 0 -9 -3 -6 -6 3 -4 2 -15 -4 -25
-8 -15 -6 -19 8 -19 15 0 16 -2 3 -10 -13 -8 -11 -12 7 -30 12 -11 27 -20 33
-20 6 0 9 -4 6 -9 -7 -11 22 -23 36 -14 7 3 8 1 4 -5 -4 -7 -1 -12 9 -12 9 0
13 -4 10 -10 -3 -5 1 -10 10 -10 9 0 13 -4 10 -10 -3 -5 -3 -10 2 -10 4 0 14
-14 21 -30 8 -17 17 -28 22 -25 4 3 11 -2 14 -11 5 -14 9 -14 23 -3 10 8 14 9
10 2 -4 -6 -3 -14 3 -18 5 -3 10 -1 10 5 0 6 4 9 9 5 6 -3 23 3 40 13 24 15
28 21 18 31 -9 10 -8 11 7 5 16 -6 18 -4 13 9 -4 10 -2 17 5 17 6 0 5 6 -3 17
-10 11 -10 14 -1 9 6 -4 12 -3 12 1 0 5 -6 15 -12 22 -11 12 -9 13 7 7 18 -6
18 -5 -2 11 -12 10 -23 25 -25 33 -2 8 -10 21 -18 28 -13 12 -13 13 0 6 13 -7
13 -5 1 9 -7 9 -19 17 -27 17 -7 0 -16 9 -19 21 -6 17 -9 18 -23 7 -10 -9 -13
-9 -9 -1 9 14 -26 36 -39 25 -5 -4 -3 1 4 10 11 14 10 16 -5 14 -10 -2 -21 2
-25 8 -5 7 -8 6 -8 -4 0 -13 -1 -13 -10 0 -9 13 -10 13 -10 0 0 -13 -2 -13 -9
-1 -7 11 -13 12 -23 3 -11 -9 -18 -9 -28 1 -10 9 -11 9 -6 0z"/>
<path d="M2700 4605 c-15 -18 -40 -20 -40 -2 0 6 -5 4 -11 -6 -6 -9 -15 -15
-20 -11 -5 3 -16 0 -24 -6 -8 -7 -22 -10 -30 -6 -9 3 -13 2 -10 -4 6 -10 -7
-14 -31 -11 -6 1 -17 -6 -24 -14 -7 -8 -18 -15 -25 -15 -7 0 -16 -7 -19 -16
-3 -8 -10 -12 -16 -9 -6 3 -14 -4 -19 -17 -6 -13 -10 -17 -10 -10 -1 7 -14 -1
-30 -17 -16 -16 -32 -27 -35 -24 -3 4 -6 -2 -6 -11 0 -11 -5 -16 -13 -13 -8 3
-14 -1 -15 -9 -1 -8 -3 -21 -4 -29 -1 -8 -3 -13 -6 -10 -5 5 -32 -20 -32 -30
0 -3 6 -3 13 0 6 4 4 0 -5 -8 -10 -8 -15 -17 -11 -20 3 -4 1 -7 -5 -7 -7 0
-12 -5 -12 -11 0 -5 5 -7 11 -3 8 4 8 1 1 -12 -5 -11 -7 -28 -5 -39 2 -11 5
-25 5 -32 1 -7 5 -10 10 -7 4 3 8 0 8 -6 0 -15 26 -41 34 -33 3 4 6 -1 6 -10
0 -9 5 -17 10 -17 6 0 10 6 10 13 0 7 3 8 8 2 4 -5 15 -16 25 -24 15 -12 17
-12 11 3 -7 18 3 21 26 6 18 -11 55 24 44 42 -4 6 -3 9 2 5 14 -8 47 20 38 34
-5 8 -3 10 5 4 8 -5 24 4 42 24 16 18 29 29 29 24 0 -4 5 0 11 11 9 15 13 16
20 5 7 -11 9 -10 9 3 0 11 5 15 14 12 8 -3 17 0 21 5 3 6 11 9 16 6 5 -4 9 -1
9 4 0 6 5 11 11 11 5 0 7 -5 3 -11 -5 -8 -2 -9 11 -2 10 6 26 8 36 6 12 -3 19
0 19 8 0 8 6 5 16 -7 8 -10 13 -13 9 -6 -3 6 -2 12 2 12 5 0 15 -6 22 -12 9
-8 11 -8 8 -2 -8 14 17 26 29 14 5 -5 20 -10 34 -12 14 -1 28 -7 31 -12 4 -5
18 -8 32 -8 15 0 25 -5 24 -11 -1 -6 10 -17 26 -24 15 -8 27 -19 27 -24 0 -6
5 -7 10 -4 6 4 10 3 9 -2 -3 -19 2 -34 10 -29 5 3 15 -2 22 -11 12 -14 12 -16
-1 -9 -8 4 -4 -2 10 -14 14 -12 18 -19 10 -15 -9 4 -8 1 3 -8 14 -11 15 -16 5
-20 -10 -4 -10 -6 0 -6 6 -1 12 -10 12 -21 0 -11 5 -20 11 -20 8 0 9 -4 0 -13
-6 -8 -8 -17 -4 -21 13 -13 13 -50 1 -58 -8 -5 -9 -8 -2 -8 6 0 12 -11 12 -25
0 -15 -5 -22 -12 -18 -6 3 -6 0 2 -8 6 -7 12 -21 12 -32 0 -11 4 -15 12 -11 8
5 9 2 5 -9 -3 -10 -2 -17 4 -17 6 0 7 -6 3 -12 -4 -7 -3 -10 1 -5 5 4 16 0 25
-8 19 -17 110 -27 110 -13 0 6 7 7 16 4 10 -4 13 -2 8 6 -5 7 -2 9 9 5 8 -3
21 1 27 8 7 8 16 12 21 9 5 -3 9 0 9 6 0 6 4 9 9 6 5 -4 12 0 14 6 4 10 6 10
6 1 1 -7 6 -13 12 -13 5 0 8 4 5 8 -2 4 4 8 14 8 10 0 16 -4 14 -8 -3 -4 0 -8
5 -8 6 0 11 6 11 13 0 9 3 8 9 -2 5 -7 14 -10 20 -7 6 4 11 3 11 -2 0 -5 18
-17 40 -27 22 -10 37 -22 34 -26 -3 -5 2 -6 10 -3 9 3 16 1 16 -6 0 -6 5 -8
10 -5 6 3 10 0 10 -8 0 -16 27 -31 49 -28 7 1 10 -2 7 -7 -8 -14 56 -8 89 9
17 8 29 22 29 32 -1 9 1 15 5 13 3 -2 11 2 18 9 10 11 10 15 0 18 -8 4 -6 6 3
6 16 1 23 41 7 41 -4 0 -5 5 -2 10 3 6 2 10 -3 10 -6 0 -8 9 -5 20 3 11 0 20
-6 20 -6 0 -11 7 -11 15 0 8 -5 15 -10 15 -6 0 -15 11 -20 25 -5 14 -14 25
-20 25 -5 0 -10 7 -10 16 0 8 -4 12 -10 9 -5 -3 -17 3 -27 15 -10 11 -23 20
-30 20 -7 0 -13 5 -13 11 0 5 -4 7 -10 4 -5 -3 -10 -1 -10 5 0 7 -7 9 -16 6
-8 -3 -13 -2 -10 3 3 5 -1 12 -10 15 -10 4 -13 2 -8 -7 6 -8 3 -8 -9 1 -9 8
-22 10 -28 6 -8 -4 -9 -3 -5 4 7 11 -33 18 -73 13 -8 -2 -10 2 -5 11 4 7 -3 4
-15 -7 -12 -11 -22 -15 -21 -10 5 21 -1 29 -10 15 -7 -11 -10 -11 -10 -2 0 7
-5 10 -10 7 -6 -4 -8 -11 -5 -16 3 -5 -1 -6 -9 -3 -9 3 -14 10 -11 14 3 4 -2
11 -11 14 -10 4 -14 12 -10 22 5 12 2 15 -10 10 -15 -6 -15 -4 -3 10 10 13 11
18 2 21 -7 2 -9 11 -6 20 4 11 2 14 -5 9 -7 -4 -12 -1 -13 6 -2 43 -29 85 -44
70 -4 -4 -5 2 -3 13 2 12 -2 19 -9 17 -7 -1 -13 7 -13 18 0 11 -5 20 -11 20
-5 0 -8 4 -5 8 3 5 -6 15 -19 22 -14 7 -25 17 -25 22 0 4 -7 8 -16 8 -11 0
-14 5 -10 16 4 12 2 15 -9 10 -8 -3 -15 -1 -15 4 0 6 -5 10 -11 10 -16 0 -39
26 -31 35 4 5 1 5 -6 1 -6 -4 -19 0 -28 8 -9 9 -20 14 -25 11 -5 -4 -9 -1 -9
5 0 6 -5 8 -12 4 -6 -4 -17 1 -25 11 -9 14 -13 15 -13 4 -1 -10 -4 -9 -11 4
-9 15 -13 16 -27 5 -13 -11 -14 -11 -7 1 6 11 4 13 -9 8 -10 -4 -19 -1 -23 8
-5 14 -7 14 -17 -1 -11 -14 -13 -14 -25 0 -10 12 -18 13 -33 5 -15 -8 -19 -8
-14 0 8 12 -21 11 -41 -2 -6 -4 -15 -2 -19 4 -4 8 -9 7 -15 -2 -6 -10 -9 -11
-9 -1 0 6 -5 12 -11 12 -5 0 -8 -4 -5 -8 3 -5 -2 -9 -10 -9 -8 0 -13 6 -10 14
7 17 1 17 -14 -2z"/>
<path d="M3825 4230 c-3 -5 -1 -10 4 -10 6 0 11 5 11 10 0 6 -2 10 -4 10 -3 0
-8 -4 -11 -10z"/>
<path d="M1633 4166 c6 -16 5 -17 -8 -6 -12 10 -18 10 -32 -1 -15 -12 -16 -12
-8 1 8 13 7 13 -8 1 -14 -11 -17 -11 -17 0 0 8 -6 5 -15 -7 -10 -14 -14 -15
-15 -5 0 11 -4 10 -16 -5 -8 -10 -12 -12 -8 -4 7 13 5 13 -9 1 -9 -7 -17 -10
-17 -5 0 4 -7 -1 -16 -12 -8 -10 -12 -13 -8 -5 4 9 -8 5 -34 -9 -23 -13 -38
-28 -35 -33 4 -6 0 -8 -10 -4 -11 4 -17 1 -17 -9 0 -8 -4 -12 -10 -9 -9 6 -14
-7 -11 -27 0 -4 -5 -5 -13 -2 -7 3 -19 -3 -27 -13 -13 -17 -13 -17 6 -4 11 8
8 2 -7 -13 -16 -15 -28 -34 -28 -42 0 -8 -3 -13 -8 -10 -14 8 -6 -62 9 -80 11
-14 11 -16 1 -10 -11 7 -12 4 -2 -13 6 -12 16 -19 21 -15 6 3 9 -2 7 -12 -2
-15 3 -19 23 -18 19 0 25 -4 22 -13 -6 -16 18 -14 29 2 5 6 8 5 8 -4 0 -11 3
-11 15 -1 8 6 20 8 26 4 8 -4 9 -3 5 4 -5 8 0 12 13 12 12 0 21 7 21 16 0 8 5
12 10 9 6 -3 10 -1 10 4 0 6 5 11 10 11 6 0 22 12 35 26 16 17 25 22 25 13 0
-11 2 -12 9 -1 4 8 17 12 27 10 12 -2 18 2 16 11 -3 12 0 12 12 1 13 -10 16
-10 16 1 0 11 2 11 10 -1 9 -13 10 -13 10 0 0 9 3 11 8 5 8 -12 32 -13 50 -2
7 5 12 3 12 -4 0 -7 3 -9 7 -6 3 4 13 1 21 -6 13 -10 14 -9 8 1 -6 10 0 9 23
-2 17 -9 31 -22 31 -29 0 -8 4 -7 10 3 8 13 10 12 10 -3 0 -10 5 -15 10 -12 6
3 10 2 10 -3 0 -5 14 -12 30 -14 17 -3 30 0 30 6 0 8 3 7 8 0 8 -14 52 0 52
16 0 5 7 10 16 10 8 0 12 5 9 10 -3 6 -1 10 5 10 7 0 9 7 6 16 -3 8 -2 12 4 9
6 -3 10 -3 11 2 5 44 5 65 -3 69 -4 3 -5 10 -2 16 4 6 -4 20 -17 30 -13 11
-17 17 -9 13 8 -4 3 4 -12 17 -15 14 -24 28 -21 32 4 4 0 4 -9 1 -9 -4 -18 0
-21 9 -4 9 -13 16 -22 16 -8 0 -15 5 -15 11 0 8 -5 7 -15 -1 -13 -11 -14 -10
-9 5 6 15 4 16 -15 6 -17 -9 -21 -9 -19 1 2 7 -6 14 -17 14 -11 1 -26 2 -33 3
-7 1 -11 4 -9 9 3 4 -14 7 -36 6 -23 0 -50 4 -59 8 -12 6 -18 5 -18 -3 0 -8
-5 -7 -17 2 -15 12 -16 12 -10 -5z"/>
<path d="M4154 4136 c-3 -7 -16 -12 -29 -11 -17 2 -22 -1 -18 -11 3 -8 1 -14
-3 -12 -5 2 -16 -3 -24 -11 -16 -15 -15 -105 1 -95 8 5 13 -10 10 -29 -1 -5 3
-6 8 -3 5 4 13 1 16 -5 4 -5 13 -8 21 -5 8 3 13 0 11 -7 -1 -7 3 -11 9 -10 6
1 17 -9 24 -22 7 -14 22 -27 32 -31 10 -3 16 -9 13 -14 -8 -13 6 -40 21 -40 8
0 14 -5 14 -11 0 -5 -5 -7 -12 -3 -7 4 -8 3 -4 -5 4 -6 12 -9 17 -6 5 4 9 1 9
-5 0 -6 5 -8 10 -5 6 3 10 2 10 -2 0 -15 63 -6 75 10 5 8 15 15 20 16 6 1 9 8
7 15 -1 7 7 22 18 34 12 12 16 22 11 22 -5 0 -8 9 -6 20 2 11 -1 20 -6 20 -6
0 -7 4 -4 10 8 13 -19 52 -30 42 -5 -4 -5 -1 -1 6 4 7 0 20 -11 30 -11 9 -12
13 -3 7 13 -9 13 -8 1 8 -7 9 -22 17 -32 17 -12 0 -19 7 -19 20 0 11 -3 19 -7
19 -22 -4 -33 2 -27 13 5 8 2 9 -9 5 -10 -3 -17 -2 -17 4 0 6 -4 7 -10 4 -5
-3 -10 -2 -10 3 0 14 -47 21 -60 8 -8 -8 -9 -6 -5 7 4 9 4 17 1 17 -4 0 -9 -6
-12 -14z"/>
<path d="M2392 3572 c2 -9 -8 -15 -30 -17 -18 -1 -38 -8 -46 -14 -11 -9 -15
-9 -19 1 -4 10 -6 10 -6 1 -1 -7 -10 -13 -20 -13 -11 0 -23 -5 -27 -12 -5 -7
-3 -8 6 -3 9 5 11 4 6 -4 -4 -6 -12 -8 -18 -5 -6 4 -13 3 -17 -2 -3 -5 -19
-16 -36 -25 -17 -8 -29 -23 -29 -32 1 -9 -2 -15 -6 -12 -11 7 -61 -35 -55 -45
3 -4 -2 -10 -10 -14 -8 -3 -15 -10 -15 -17 0 -6 -8 -18 -18 -27 -10 -10 -12
-13 -5 -8 24 16 21 1 -3 -17 -13 -10 -24 -13 -24 -7 0 5 -7 10 -15 10 -8 0
-15 5 -15 11 0 5 -5 7 -12 3 -6 -4 -8 -3 -4 4 3 6 -1 17 -9 25 -8 9 -15 22
-15 29 0 10 -3 9 -10 -2 -6 -10 -10 -11 -10 -2 0 6 -8 12 -17 12 -9 0 -14 3
-10 6 7 8 -23 43 -48 55 -20 10 -20 10 -1 -5 11 -9 15 -16 9 -16 -7 0 -15 5
-18 10 -4 6 -11 8 -16 5 -5 -3 -6 2 -2 11 4 12 3 15 -5 10 -7 -4 -12 -2 -12 6
0 11 -2 10 -9 0 -7 -11 -9 -10 -14 3 -6 13 -11 14 -28 4 -12 -6 -19 -7 -15 -1
3 5 -1 13 -10 16 -10 4 -13 2 -9 -7 4 -6 -1 -3 -9 7 -9 11 -16 15 -16 8 0 -6
-7 -9 -17 -5 -12 5 -14 3 -9 -8 5 -10 4 -9 -6 1 -16 19 -62 25 -51 7 3 -7 -4
-3 -17 8 -13 11 -20 14 -15 6 6 -11 4 -13 -8 -8 -9 3 -19 1 -23 -5 -5 -7 -2
-8 7 -3 8 5 11 4 6 -1 -4 -4 -23 -7 -42 -6 -18 2 -36 -2 -41 -9 -5 -8 -3 -10
6 -4 9 5 11 4 6 -4 -6 -9 -11 -9 -22 0 -11 9 -14 9 -14 0 0 -7 -5 -9 -10 -6
-6 3 -13 0 -16 -9 -3 -8 -12 -12 -19 -9 -8 3 -34 -16 -61 -44 -26 -26 -51 -47
-55 -46 -5 2 -5 -5 -2 -15 3 -9 2 -14 -2 -10 -12 11 -38 -30 -29 -45 6 -9 5
-9 -7 0 -14 11 -16 9 -14 -17 1 -17 -2 -27 -8 -23 -6 4 -8 0 -4 -10 3 -10 2
-17 -4 -17 -6 0 -8 -4 -5 -9 4 -5 0 -12 -6 -14 -10 -4 -9 -6 1 -6 11 -1 11 -4
0 -18 -12 -14 -12 -16 1 -9 8 4 6 1 -4 -8 -10 -8 -22 -13 -27 -11 -4 3 -10 -1
-12 -7 -4 -10 -6 -9 -6 1 -1 11 -4 11 -18 0 -9 -8 -14 -9 -10 -3 4 7 -5 11
-24 11 -19 0 -28 -5 -25 -12 3 -8 -4 -10 -18 -8 -13 3 -30 -2 -38 -11 -9 -8
-18 -12 -22 -9 -3 4 -6 -1 -6 -10 0 -9 -6 -17 -14 -17 -8 0 -17 -7 -20 -16 -6
-15 -4 -15 10 -3 16 13 16 12 4 -8 -8 -12 -18 -19 -24 -16 -5 4 -7 -1 -3 -10
4 -10 2 -17 -5 -17 -7 0 -7 -4 1 -13 6 -8 8 -17 4 -21 -12 -11 -10 -87 1 -83
6 3 11 -6 11 -19 0 -13 -4 -24 -10 -24 -5 0 -2 -6 7 -13 11 -9 14 -18 8 -27
-5 -8 -3 -25 7 -43 8 -16 10 -26 5 -23 -6 3 -9 -2 -7 -11 2 -10 4 -22 4 -26 1
-5 5 -6 9 -3 5 3 9 -1 9 -9 0 -8 -5 -11 -11 -8 -6 3 -5 0 1 -7 10 -11 10 -17
0 -29 -10 -12 -9 -14 3 -9 12 5 16 -1 14 -23 -1 -16 3 -29 8 -29 7 0 7 -5 0
-13 -9 -10 -7 -19 5 -37 9 -13 11 -20 5 -16 -7 4 -12 2 -12 -3 0 -6 5 -11 10
-11 6 0 10 -5 10 -11 0 -5 -6 -7 -12 -3 -7 4 -4 -3 7 -16 14 -15 16 -24 8 -27
-7 -2 -9 -11 -6 -19 3 -7 8 -12 13 -9 4 2 5 -7 2 -20 -2 -14 1 -32 8 -40 7 -8
8 -15 3 -15 -5 0 -9 -9 -9 -19 0 -11 4 -17 9 -14 5 3 8 -1 6 -8 -3 -28 1 -40
13 -33 7 5 8 3 2 -7 -11 -19 -14 -39 -5 -39 4 0 8 -7 8 -15 0 -8 -5 -15 -11
-15 -6 0 -5 -4 3 -9 8 -5 11 -16 8 -25 -4 -9 -2 -16 3 -16 5 0 7 -12 4 -26 -3
-19 -1 -24 8 -18 10 6 11 5 1 -7 -9 -11 -9 -19 -2 -26 6 -6 12 -29 12 -51 1
-26 5 -38 11 -34 6 3 5 -1 -2 -10 -8 -10 -9 -19 -3 -22 5 -4 8 -15 6 -26 -3
-14 1 -17 13 -13 15 6 15 5 3 -10 -11 -14 -11 -20 0 -34 12 -15 12 -16 -1 -8
-12 6 -12 5 -3 -5 6 -7 9 -19 6 -28 -4 -10 -2 -13 5 -8 9 5 9 1 3 -17 -7 -18
-5 -29 7 -42 13 -13 13 -16 2 -10 -9 5 -7 -1 5 -15 11 -13 15 -20 9 -17 -18
10 -25 -20 -9 -33 15 -13 15 -35 1 -59 -7 -10 -6 -12 4 -6 10 6 12 4 7 -9 -5
-11 -3 -15 5 -10 7 5 9 0 6 -13 -3 -11 -1 -28 5 -38 7 -13 6 -16 -2 -11 -18
11 -13 -6 7 -20 12 -10 13 -13 3 -14 -11 0 -11 -3 0 -17 9 -11 10 -14 2 -9 -9
5 -11 2 -7 -8 3 -9 9 -14 13 -12 4 3 7 -4 7 -15 0 -10 -5 -19 -10 -19 -5 0 -2
-6 9 -13 14 -11 15 -16 5 -22 -10 -6 -9 -9 1 -16 11 -7 11 -9 1 -9 -10 0 -10
-5 -1 -21 6 -12 9 -34 7 -51 -3 -18 -1 -27 6 -25 6 3 12 -6 12 -19 1 -13 -2
-21 -8 -18 -5 3 -2 -8 7 -26 9 -18 12 -29 7 -26 -6 4 -14 1 -18 -5 -4 -8 -3
-9 4 -5 7 4 12 2 12 -4 0 -6 5 -8 11 -4 8 4 8 0 0 -15 -7 -11 -8 -21 -3 -21
13 0 11 -30 -2 -31 -6 0 -2 -4 9 -9 12 -5 14 -9 6 -9 -11 -1 -10 -5 5 -17 10
-8 13 -13 7 -9 -17 8 -17 -17 0 -34 10 -11 9 -12 -3 -6 -13 8 -13 7 -1 -8 10
-13 10 -17 1 -17 -9 0 -10 -4 -2 -13 6 -7 13 -32 14 -55 2 -23 7 -42 12 -42 5
0 3 -6 -3 -14 -9 -11 -8 -15 4 -20 13 -5 14 -10 4 -27 -8 -15 -8 -19 0 -15 6
4 11 4 12 -1 0 -4 2 -16 4 -26 2 -9 -1 -15 -6 -11 -5 3 -9 0 -9 -5 0 -6 5 -11
11 -11 8 0 8 -4 0 -14 -8 -10 -9 -16 -1 -21 5 -3 10 -19 10 -35 0 -15 6 -31
13 -33 6 -3 3 -6 -8 -7 -18 -1 -19 -1 -2 -11 12 -7 15 -15 8 -27 -6 -12 -5
-24 5 -37 11 -15 11 -20 1 -27 -8 -5 -6 -8 8 -8 11 0 16 -4 10 -8 -14 -10 -17
-32 -5 -32 5 0 10 -7 10 -16 0 -9 -5 -12 -12 -8 -7 4 -4 -2 6 -14 14 -16 15
-22 6 -22 -9 0 -7 -5 6 -15 19 -15 19 -15 -1 -8 -17 6 -18 4 -8 -8 9 -12 10
-18 1 -27 -8 -8 -7 -13 6 -18 13 -5 14 -9 5 -20 -9 -11 -8 -15 5 -20 9 -3 13
-10 10 -15 -3 -5 -10 -7 -15 -4 -5 3 -6 -1 -3 -9 3 -9 10 -13 15 -10 5 3 6 -2
3 -11 -4 -8 0 -23 7 -32 8 -9 9 -14 3 -10 -6 3 -11 0 -11 -8 0 -8 4 -12 8 -10
10 7 20 -25 12 -37 -3 -7 -1 -8 5 -4 7 4 12 1 12 -9 0 -10 16 -33 35 -52 19
-19 35 -30 35 -24 0 7 10 3 22 -9 12 -11 33 -21 47 -22 14 -1 34 -2 43 -3 9 0
20 -4 24 -8 4 -4 16 1 27 10 11 10 17 13 14 7 -4 -7 0 -15 9 -18 8 -3 13 -2
10 3 -3 5 3 11 14 14 11 3 18 1 15 -4 -3 -4 10 -7 30 -5 20 1 38 -2 42 -6 3
-5 14 -1 26 9 11 10 17 13 14 7 -4 -7 0 -15 9 -18 8 -3 13 -2 10 3 -3 5 3 11
14 14 11 3 18 2 15 -3 -2 -4 30 -7 71 -6 42 0 78 -3 81 -7 3 -5 14 0 26 10 11
10 17 13 14 7 -4 -7 0 -15 9 -18 8 -3 13 -2 10 3 -3 5 3 11 14 14 11 3 18 2
15 -2 -2 -4 23 -8 55 -8 40 0 58 4 54 11 -3 6 1 3 8 -6 13 -15 15 -15 26 0 7
9 10 12 7 6 -7 -16 22 -26 31 -12 5 7 2 8 -6 3 -8 -5 -11 -4 -6 3 8 13 36 5
36 -11 0 -6 7 -2 16 9 8 10 13 14 10 8 -8 -15 21 -26 30 -12 5 7 2 8 -6 3 -9
-5 -11 -4 -6 4 5 7 12 9 19 3 7 -5 36 -9 65 -8 30 0 56 -3 59 -7 3 -5 14 0 26
10 11 10 17 13 14 7 -4 -7 0 -15 9 -18 8 -3 13 -2 10 3 -3 5 3 11 14 14 11 3
18 2 15 -2 -2 -4 23 -8 55 -8 40 0 58 4 54 11 -3 6 1 3 8 -6 13 -15 15 -15 26
0 7 9 10 12 7 6 -7 -16 22 -26 31 -12 5 7 2 8 -6 3 -8 -5 -11 -4 -6 3 8 13 36
5 36 -11 0 -6 7 -2 16 9 8 10 13 14 10 8 -8 -15 21 -26 30 -12 5 7 2 8 -6 3
-9 -5 -11 -4 -6 4 5 7 12 9 19 3 7 -5 36 -9 65 -8 30 0 56 -3 59 -7 3 -5 14 0
26 10 11 10 17 13 14 7 -4 -7 0 -15 9 -18 8 -3 13 -2 10 3 -3 5 3 11 14 14 11
3 18 2 15 -3 -2 -4 30 -7 71 -6 42 0 78 -3 81 -7 3 -5 14 0 26 10 11 10 17 13
14 7 -4 -7 0 -15 9 -18 8 -3 13 -2 10 3 -3 5 3 11 14 14 11 3 18 1 15 -4 -3
-4 10 -7 30 -5 20 1 38 -2 42 -6 3 -5 14 -1 26 9 11 10 17 13 14 7 -4 -7 0
-15 9 -18 8 -3 13 -2 10 3 -3 5 3 11 14 14 11 3 18 1 15 -4 -3 -4 10 -7 30 -5
20 1 38 -2 42 -6 3 -5 14 -1 26 9 11 10 17 13 14 7 -4 -7 0 -15 9 -18 8 -3 13
-2 10 3 -3 5 3 11 14 14 11 3 18 1 15 -4 -3 -4 10 -7 30 -5 20 1 38 -2 42 -6
3 -5 14 -1 26 9 11 10 17 13 14 7 -4 -7 0 -15 9 -18 8 -3 13 -2 10 3 -3 5 3
11 14 14 11 3 18 2 15 -3 -2 -4 30 -7 71 -6 42 0 78 -3 81 -7 3 -5 13 -1 23 8
15 14 18 14 30 0 9 -11 16 -12 25 -5 7 6 21 7 30 3 13 -5 16 -3 10 6 -5 10 -2
11 14 6 13 -4 21 -2 21 6 0 8 5 8 17 -2 11 -10 14 -10 9 -1 -4 7 -1 12 9 12
10 0 13 5 9 12 -4 6 -3 8 3 5 13 -8 95 62 90 77 -2 6 3 17 10 25 11 10 12 16
3 21 -9 6 -7 11 6 19 14 8 15 11 4 11 -10 0 -11 3 -4 8 6 4 14 20 18 35 5 22
4 27 -6 21 -10 -6 -10 -4 -3 7 6 8 12 28 14 44 2 17 7 32 11 35 5 3 5 12 0 19
-10 16 -2 43 10 36 5 -3 5 8 0 25 -7 25 -6 30 8 30 11 0 13 3 6 8 -13 9 -14
42 -1 42 5 0 3 8 -4 17 -8 9 -9 14 -3 10 7 -4 14 3 16 18 3 13 1 22 -3 19 -5
-3 -9 0 -9 5 0 6 4 11 9 11 5 0 7 10 3 22 -4 16 -2 19 9 13 11 -6 11 -5 2 5
-9 9 -9 19 -2 33 9 15 8 18 -3 12 -10 -6 -11 -5 0 6 14 16 16 33 2 24 -6 -3
-7 1 -4 9 3 9 10 13 15 10 5 -3 6 2 2 11 -3 10 0 21 8 26 12 7 12 9 0 9 -11 0
-11 3 -1 15 10 12 10 15 -1 15 -10 1 -8 4 4 11 13 8 15 14 7 30 -8 13 -8 19 0
19 6 0 9 4 5 9 -3 5 -1 12 3 15 5 3 8 17 7 31 -2 14 2 25 8 25 7 0 6 5 -3 10
-13 9 -13 11 0 20 13 9 13 10 0 10 -13 0 -13 1 0 10 8 5 11 10 7 10 -4 0 -3
10 4 21 6 12 7 19 2 16 -5 -4 -10 0 -10 8 0 8 4 12 8 10 13 -8 18 22 6 35 -9
10 -9 11 1 6 15 -9 16 6 0 22 -9 9 -9 12 1 12 8 0 11 6 7 16 -3 8 -2 12 4 9
17 -10 11 7 -7 22 -10 8 -13 12 -8 10 6 -3 16 1 23 9 7 8 8 14 3 14 -6 0 -6
11 -1 29 4 16 5 32 2 36 -4 3 0 10 8 15 12 8 12 10 1 10 -10 0 -11 3 -2 13 6
8 8 17 4 20 -3 4 -2 7 4 7 6 0 8 11 5 25 -2 14 1 32 8 40 10 12 10 15 0 15
-10 0 -10 3 0 15 6 8 9 19 5 25 -3 5 -1 10 6 10 9 0 9 3 0 14 -9 11 -9 17 1
27 17 18 22 63 6 53 -6 -4 -4 3 5 16 11 16 13 27 6 36 -7 8 -5 17 7 29 15 14
15 18 3 25 -10 7 -11 12 -2 21 6 6 9 18 6 25 -3 8 1 14 8 14 9 0 10 3 2 11
-11 11 -6 52 6 44 4 -2 8 2 8 10 0 8 -5 11 -11 8 -6 -4 -5 1 3 10 11 14 11 17
0 17 -12 0 -12 2 0 9 8 5 11 16 8 25 -3 8 -1 18 5 22 7 5 8 2 3 -7 -5 -8 -4
-10 0 -6 17 15 14 39 -3 33 -15 -5 -15 -5 -1 6 9 7 15 26 15 41 -1 16 2 31 6
33 5 3 5 16 2 30 -4 14 -2 24 4 24 6 0 9 11 7 25 -1 14 2 25 8 25 6 0 3 8 -6
18 -14 15 -15 19 -2 19 8 0 11 -5 8 -11 -3 -6 -2 -7 2 -3 16 14 14 39 -2 33
-12 -5 -13 -4 -5 7 7 8 8 18 4 22 -4 5 -2 5 4 2 7 -4 14 2 17 13 3 11 1 18 -4
14 -5 -3 -9 2 -9 11 0 12 5 15 16 11 13 -5 14 -3 7 6 -6 7 -8 22 -6 33 3 11 6
32 7 48 0 15 4 27 8 27 4 0 5 6 2 14 -3 8 0 24 6 36 10 18 10 21 -2 14 -11 -6
-11 -5 1 9 7 9 10 17 5 17 -5 0 -2 5 6 10 12 8 12 10 1 10 -10 0 -10 6 4 26 9
15 12 23 6 20 -15 -10 -14 7 2 23 10 11 9 12 -3 6 -13 -8 -13 -6 -2 7 7 9 15
37 16 61 2 24 6 49 9 54 4 6 3 13 0 17 -11 10 -12 37 -2 30 5 -3 6 -11 3 -17
-4 -7 -3 -8 1 -4 14 12 15 37 2 37 -7 0 -4 5 6 11 13 8 15 14 7 29 -7 14 -6
22 4 33 11 11 12 17 3 26 -8 8 -8 11 1 11 6 0 9 6 6 14 -3 8 0 17 6 21 9 6 9
9 -1 15 -10 7 -10 12 -1 22 13 16 9 73 -7 92 -6 7 -8 16 -4 19 3 4 -2 7 -13 7
-16 0 -17 2 -4 10 13 9 13 10 0 11 -8 1 -19 1 -23 0 -5 -1 -6 3 -3 8 3 5 -1
11 -9 15 -8 3 -15 13 -15 23 0 15 -2 16 -10 3 -8 -13 -11 -13 -22 -1 -11 12
-10 13 2 7 8 -4 6 0 -4 8 -13 10 -23 12 -31 6 -7 -6 -15 -6 -23 2 -8 8 -15 8
-25 0 -10 -9 -16 -9 -25 0 -9 9 -12 9 -12 0 0 -7 -7 -5 -18 6 -11 10 -14 20
-8 24 6 4 4 14 -7 26 -9 10 -17 26 -17 35 0 9 -4 17 -10 17 -5 0 -6 8 -3 17 5
13 2 15 -12 10 -15 -6 -16 -5 -5 8 11 13 11 16 -1 13 -9 -2 -13 4 -11 15 2 11
-4 17 -15 18 -10 0 -13 3 -6 6 14 5 -28 53 -47 53 -6 0 -8 5 -5 10 3 6 0 10
-7 10 -7 0 -19 9 -26 20 -7 12 -23 20 -39 20 -14 0 -23 3 -20 7 13 12 -37 31
-52 19 -11 -8 -13 -8 -8 1 5 7 1 12 -10 12 -17 0 -58 8 -58 11 0 1 -15 3 -32
4 -18 1 -33 -2 -33 -8 0 -6 -5 -4 -11 4 -8 12 -12 12 -16 2 -4 -9 -8 -10 -18
-2 -10 8 -15 8 -21 -1 -5 -8 -3 -9 6 -4 8 5 11 4 6 -3 -4 -6 -14 -8 -22 -5 -9
3 -20 0 -25 -8 -7 -12 -9 -12 -9 0 0 11 -3 11 -15 1 -8 -6 -19 -9 -25 -5 -5 3
-10 1 -10 -5 0 -6 -5 -8 -12 -4 -7 5 -9 2 -5 -8 4 -12 1 -14 -13 -11 -10 3
-27 -5 -40 -19 -13 -12 -19 -17 -15 -9 5 9 -1 7 -19 -4 -14 -9 -23 -21 -20
-26 3 -5 -2 -9 -10 -9 -9 0 -16 -7 -16 -15 0 -9 -6 -12 -17 -8 -10 4 -14 2
-10 -4 3 -5 -7 -20 -24 -32 -16 -12 -27 -27 -24 -34 4 -7 0 -4 -9 7 -9 11 -20
15 -28 10 -11 -6 -11 -5 0 8 10 13 10 17 -4 22 -9 4 -14 12 -10 22 3 8 2 12
-4 9 -5 -3 -15 6 -22 20 -8 18 -14 22 -20 13 -5 -9 -8 -6 -8 10 0 13 -4 20
-10 17 -5 -3 -10 0 -10 8 0 14 -48 64 -57 58 -2 -1 -15 6 -29 18 -14 12 -26
16 -30 10 -3 -6 -11 -3 -18 7 -7 9 -18 14 -24 10 -6 -3 -14 -1 -19 6 -4 7 -21
13 -38 14 -16 0 -29 5 -28 11 1 6 -9 8 -22 5 -15 -2 -22 -9 -18 -16 4 -6 -1
-5 -11 3 -23 19 -56 22 -49 4 4 -9 0 -11 -11 -7 -9 3 -14 10 -11 14 3 5 -4 6
-15 3 -11 -3 -17 -10 -13 -16 3 -6 1 -7 -5 -3 -18 11 -94 -13 -85 -27 4 -7 0
-7 -10 2 -11 9 -17 10 -17 2 0 -6 -6 -10 -12 -9 -7 2 -12 -2 -11 -8 1 -6 -9
-10 -23 -8 -13 1 -22 -2 -18 -7 3 -5 0 -9 -6 -9 -6 0 -8 -6 -4 -12 4 -7 4 -10
-1 -6 -10 10 -47 -10 -40 -22 3 -5 -4 -11 -15 -15 -11 -3 -20 -11 -20 -16 0
-6 -4 -7 -10 -4 -5 3 -10 1 -10 -6 0 -8 -3 -9 -13 0 -8 6 -18 7 -22 3 -5 -4
-5 -1 -1 6 4 7 1 12 -9 12 -9 0 -14 4 -10 9 7 12 -29 33 -41 23 -5 -4 -2 1 5
11 12 14 11 17 -3 17 -9 0 -17 -1 -19 -2 -5 -5 -35 27 -31 34 2 3 -9 5 -25 4
-17 -1 -27 2 -25 6 5 8 -11 17 -43 23 -10 2 -18 4 -18 5 0 1 -11 3 -25 6 -19
3 -21 2 -10 -6 9 -6 10 -10 3 -10 -6 0 -14 4 -17 8 -2 4 -19 9 -36 10 -21 2
-29 -1 -24 -9 3 -6 -6 -3 -22 7 -15 11 -25 13 -21 7 5 -7 4 -13 0 -13 -5 0
-15 6 -22 13 -10 10 -12 9 -9 -1z m-202 -107 c-7 -9 -15 -13 -19 -10 -3 3 1
10 9 15 21 14 24 12 10 -5z m1299 -19 c-3 -3 -11 5 -18 17 -13 21 -12 21 5 5
10 -10 16 -20 13 -22z m181 -140 c0 -3 -4 -8 -10 -11 -5 -3 -10 -1 -10 4 0 6
5 11 10 11 6 0 10 -2 10 -4z m-1224 -36 c5 1 15 7 23 13 8 7 12 8 9 2 -3 -5 0
-16 8 -23 8 -7 14 -9 14 -4 0 5 7 9 15 9 8 0 15 -3 15 -7 0 -9 53 -34 65 -31
6 2 7 -1 3 -5 -4 -4 2 -15 14 -25 11 -11 18 -19 15 -19 -4 0 2 -16 13 -35 13
-24 16 -35 7 -35 -8 0 -7 -4 3 -10 8 -5 11 -10 5 -10 -11 0 -12 -50 -1 -68 4
-7 4 -12 -1 -12 -9 0 -8 -111 1 -135 3 -8 1 -15 -4 -15 -6 0 -6 -9 0 -25 6
-16 6 -25 -1 -25 -6 0 -6 -7 1 -20 8 -15 8 -20 -2 -20 -9 0 -9 -3 2 -10 8 -5
11 -10 5 -10 -6 0 -10 -28 -10 -64 0 -35 3 -62 8 -59 4 2 7 -1 7 -6 0 -6 -3
-11 -7 -11 -10 0 -9 -52 1 -68 4 -7 4 -12 -1 -12 -9 0 -8 -111 1 -135 3 -8 1
-15 -4 -15 -6 0 -6 -9 0 -25 6 -16 6 -25 -1 -25 -6 0 -6 -7 1 -20 8 -15 8 -20
-2 -20 -9 0 -9 -3 2 -10 8 -5 11 -10 5 -10 -6 0 -10 -28 -10 -64 0 -35 3 -62
8 -59 4 2 7 -1 7 -6 0 -6 -4 -11 -9 -11 -9 0 2 -76 12 -87 4 -3 2 -14 -4 -24
-7 -13 -6 -19 1 -19 7 0 8 -6 1 -18 -7 -13 -6 -23 2 -32 9 -10 9 -11 0 -6 -7
4 -13 2 -13 -3 0 -6 4 -11 8 -11 5 0 9 -7 9 -15 0 -8 -4 -12 -9 -9 -4 3 -8 0
-8 -5 0 -6 5 -11 11 -11 8 0 8 -4 1 -13 -7 -8 -7 -18 -2 -27 5 -8 5 -21 -1
-32 -7 -12 -6 -18 1 -18 8 0 8 -6 0 -20 -8 -14 -8 -20 0 -20 7 0 8 -6 0 -19
-7 -14 -7 -22 0 -26 8 -5 7 -12 -1 -22 -8 -9 -9 -17 -3 -21 11 -8 11 -32 1
-49 -5 -8 -3 -13 4 -13 8 0 8 -4 1 -13 -7 -8 -7 -18 -2 -27 5 -8 5 -21 -1 -32
-7 -12 -6 -18 1 -18 7 0 8 -6 1 -18 -7 -13 -6 -23 2 -32 9 -10 9 -11 0 -6 -7
4 -13 2 -13 -3 0 -6 4 -11 8 -11 5 0 9 -7 9 -15 0 -8 -4 -12 -9 -9 -4 3 -8 0
-8 -5 0 -6 5 -11 11 -11 8 0 8 -4 1 -13 -7 -8 -7 -18 -2 -27 5 -8 5 -21 -1
-32 -7 -12 -6 -18 1 -18 8 0 8 -6 0 -20 -8 -14 -8 -20 0 -20 7 0 8 -6 0 -19
-7 -14 -7 -22 0 -26 8 -5 7 -12 -1 -22 -8 -9 -9 -17 -3 -21 11 -8 11 -32 1
-49 -5 -8 -3 -13 4 -13 8 0 8 -4 1 -13 -7 -8 -7 -18 -2 -27 5 -8 5 -21 -1 -32
-7 -12 -6 -18 1 -18 7 0 8 -6 1 -18 -7 -13 -6 -23 2 -32 9 -10 9 -11 0 -6 -7
4 -13 2 -13 -3 0 -6 4 -11 8 -11 5 0 9 -7 9 -15 0 -8 -4 -12 -9 -9 -4 3 -8 0
-8 -5 0 -6 5 -11 11 -11 8 0 8 -4 1 -13 -7 -8 -7 -18 -2 -27 5 -8 5 -21 -1
-32 -7 -12 -6 -18 1 -18 8 0 8 -6 0 -20 -8 -14 -8 -20 0 -20 7 0 8 -6 0 -19
-7 -14 -7 -22 0 -26 8 -5 7 -12 -1 -22 -8 -9 -9 -17 -3 -21 11 -8 11 -32 1
-49 -5 -8 -3 -13 4 -13 8 0 8 -4 1 -13 -7 -8 -7 -18 -2 -27 5 -9 5 -19 -2 -27
-6 -8 -6 -13 -1 -13 5 0 10 -7 10 -15 0 -8 -4 -12 -9 -9 -4 3 -8 0 -8 -5 0 -6
5 -11 11 -11 8 0 8 -4 1 -13 -7 -8 -7 -18 -2 -27 5 -8 5 -21 -1 -32 -7 -12 -6
-18 1 -18 7 0 7 -7 -1 -21 -8 -16 -8 -20 1 -14 9 6 9 2 1 -14 -9 -16 -9 -21 1
-22 7 0 3 -4 -9 -9 -13 -5 -23 -14 -23 -20 0 -6 -5 -8 -10 -5 -6 4 -8 12 -4
18 3 7 -2 3 -10 -7 -9 -11 -16 -14 -16 -7 0 14 -31 11 -42 -4 -5 -6 -8 -5 -8
4 0 10 -3 11 -14 2 -14 -12 -55 -9 -78 5 -8 5 -7 0 2 -11 14 -17 14 -18 -7 -7
-26 14 -36 15 -29 4 3 -5 -1 -9 -9 -9 -8 0 -15 5 -15 10 0 6 -3 8 -6 4 -4 -3
-13 0 -20 8 -15 15 -19 29 -6 21 13 -8 7 30 -7 47 -9 12 -9 17 0 23 8 5 9 3 4
-6 -6 -9 -4 -11 5 -5 10 6 10 10 -3 19 -11 9 -13 16 -5 30 8 14 7 17 -1 12
-15 -10 -14 7 2 23 7 9 7 11 1 8 -7 -4 -14 0 -17 8 -4 9 -1 12 9 8 12 -4 13
-1 5 19 -6 15 -5 31 1 42 7 13 7 17 0 12 -5 -3 -12 1 -16 9 -3 8 -1 17 5 21 6
3 3 11 -7 18 -12 9 -14 15 -5 20 6 4 9 12 6 17 -4 5 0 9 7 9 10 0 9 3 -1 9
-12 8 -12 12 -2 25 10 12 11 16 1 16 -7 0 -10 6 -7 14 3 7 0 19 -6 26 -9 10
-9 11 1 6 17 -10 15 9 -3 24 -11 9 -12 17 -4 32 7 14 7 23 -2 34 -9 12 -9 13
2 9 10 -4 14 2 14 19 0 20 -3 22 -14 13 -12 -10 -12 -9 -3 10 14 25 16 46 4
39 -5 -3 -9 1 -9 9 0 8 5 11 11 8 6 -4 5 1 -3 10 -7 9 -10 17 -6 17 4 0 2 6
-4 13 -8 10 -7 19 3 33 10 13 11 24 5 36 -7 13 -6 18 3 19 10 0 10 2 1 6 -7 2
-13 9 -13 14 0 6 6 7 13 3 9 -6 9 -4 0 7 -7 7 -13 26 -13 42 0 15 -4 26 -9 23
-11 -7 -8 21 4 31 4 4 5 2 0 -6 -5 -9 -4 -12 3 -7 6 4 8 17 3 34 -5 15 -7 35
-5 45 1 10 -4 17 -14 17 -11 0 -13 3 -6 8 6 4 10 27 10 52 -1 25 2 50 7 57 4
6 3 14 -4 19 -8 5 -9 3 -4 -6 6 -9 4 -11 -5 -5 -10 6 -9 11 5 22 11 7 14 13 7
13 -6 0 -9 9 -7 20 2 11 0 20 -4 20 -5 0 -7 14 -5 31 3 20 0 28 -8 23 -7 -5
-8 -3 -2 7 11 19 16 81 5 74 -11 -6 -8 21 2 31 4 4 0 15 -9 25 -11 12 -12 19
-4 24 8 5 7 11 -2 23 -11 13 -11 14 0 8 10 -6 11 -1 6 20 -6 21 -4 25 7 19 12
-8 12 -6 0 8 -7 9 -11 28 -9 42 3 14 1 25 -6 25 -6 0 -4 5 4 10 9 6 11 10 3
10 -7 0 -10 7 -6 17 4 10 2 14 -4 10 -5 -3 -10 0 -10 8 0 8 4 12 8 9 4 -2 8
14 7 36 0 22 -5 40 -12 41 -6 0 -2 4 9 9 11 5 15 9 9 9 -7 1 -15 8 -18 17 -3
8 -2 12 4 9 6 -3 10 -1 10 4 0 6 -6 11 -12 11 -10 0 -10 2 0 9 11 6 10 10 -4
15 -13 5 -14 10 -6 18 9 9 8 15 -1 27 -9 12 -9 13 1 7 15 -9 15 -5 2 28 -6 17
-6 27 2 32 6 4 8 3 4 -4 -3 -6 -2 -13 3 -16 5 -4 8 2 6 11 -2 10 -4 22 -4 26
-1 5 -7 5 -13 1 -10 -5 -10 -4 -1 6 10 11 10 17 0 29 -8 10 -8 12 -1 8 7 -4
14 0 18 8 3 8 0 14 -7 12 -7 -1 -11 6 -9 17 2 12 -1 16 -10 11 -10 -6 -11 -5
0 6 6 7 12 17 12 22 0 4 -6 5 -12 1 -8 -5 -8 -1 1 10 13 15 13 19 0 27 -11 7
-11 9 0 9 10 0 11 3 2 13 -6 8 -8 17 -4 21 11 11 14 48 4 41 -6 -3 -10 3 -9
12 0 10 -2 28 -5 40 -4 17 -2 20 10 16 13 -5 12 -1 -3 23 -11 15 -13 25 -6 20
10 -6 11 -1 7 21 -4 15 -7 34 -7 41 -1 6 -6 12 -12 12 -6 0 -5 4 2 9 8 4 14
12 14 16 0 4 -6 12 -14 16 -7 5 -8 9 -2 9 14 0 14 30 0 30 -6 0 -5 4 2 9 8 4
14 12 14 16 0 4 -6 12 -14 16 -7 5 -8 9 -3 9 6 0 11 11 11 25 1 14 -1 23 -5
21 -3 -2 -7 7 -7 20 -1 15 2 22 10 17 6 -3 6 -1 -1 8 -15 15 -17 53 -3 44 6
-3 7 1 4 9 -3 9 -11 13 -17 9 -6 -3 -7 -1 -3 5 13 21 15 51 4 58 -6 4 -5 10 3
15 12 8 11 11 -1 19 -8 5 -10 10 -3 10 6 0 9 8 6 19 -3 10 0 22 7 26 8 5 7 11
-2 23 -11 13 -11 14 1 7 11 -6 13 -4 8 8 -3 10 -2 17 3 17 6 0 10 7 10 15 0 8
5 15 10 15 6 0 9 6 8 13 -2 6 3 11 10 10 6 -2 12 2 12 8 0 5 5 7 12 3 6 -4 8
-3 5 3 -4 6 1 17 10 24 12 10 14 10 9 2 -4 -7 -2 -13 3 -13 6 0 11 6 11 13 0
7 17 13 43 15 23 1 44 8 46 14 2 7 6 6 11 -2 4 -6 11 -11 16 -10z m772 3 c6
-2 12 2 12 8 0 6 5 7 13 2 6 -4 21 -9 32 -10 11 -2 22 -8 24 -14 2 -7 7 -6 12
2 6 10 9 11 9 2 0 -7 7 -13 15 -13 8 0 15 -4 15 -10 0 -5 6 -10 14 -10 13 0
31 -27 28 -42 -1 -4 6 -4 15 -1 11 4 14 3 9 -5 -4 -7 -2 -12 6 -12 9 0 9 -3
-2 -10 -13 -8 -12 -10 3 -10 10 0 15 -4 12 -10 -3 -5 0 -10 7 -10 9 0 9 -3 -2
-10 -8 -5 -10 -10 -4 -10 7 0 15 -7 18 -16 3 -9 2 -12 -4 -9 -7 4 -8 -4 -5
-22 4 -15 6 -35 6 -43 -1 -8 -1 -24 -2 -35 0 -10 -5 -26 -12 -34 -10 -12 -9
-14 6 -8 9 3 17 2 17 -3 0 -6 -4 -10 -9 -10 -4 0 -7 -12 -5 -27 1 -15 -3 -31
-9 -35 -9 -6 -8 -11 3 -18 10 -6 11 -10 3 -10 -7 0 -13 -7 -13 -15 0 -8 6 -15
13 -15 7 0 8 -3 2 -8 -16 -11 -19 -46 -3 -36 10 6 11 5 1 -7 -6 -8 -11 -18
-11 -24 0 -5 5 -16 11 -24 10 -12 9 -14 -4 -9 -13 5 -15 -5 -13 -76 1 -50 -2
-86 -9 -95 -7 -9 -8 -12 -1 -8 6 3 11 0 11 -8 0 -8 -4 -12 -9 -9 -4 3 -8 -2
-8 -10 0 -9 6 -16 13 -16 8 0 7 -4 -3 -10 -12 -8 -13 -12 -2 -19 11 -6 10 -10
-4 -15 -15 -6 -16 -8 0 -25 9 -9 13 -20 10 -24 -7 -6 -15 -81 -15 -144 0 -24
-5 -45 -10 -49 -6 -4 -6 -11 2 -20 9 -11 8 -14 -2 -14 -9 -1 -8 -4 4 -11 16
-9 17 -13 4 -27 -25 -30 -29 -42 -11 -35 15 5 14 3 -2 -23 -11 -15 -14 -25 -8
-21 7 4 15 0 18 -9 3 -8 2 -13 -3 -10 -5 3 -8 -28 -7 -68 1 -54 -2 -72 -10
-65 -8 6 -10 2 -6 -16 2 -14 9 -22 16 -19 6 3 2 -2 -8 -10 -11 -9 -15 -16 -9
-16 6 0 10 -8 8 -17 -1 -10 2 -26 7 -35 6 -13 5 -16 -6 -12 -15 6 -17 -11 -3
-33 4 -6 2 -15 -4 -19 -8 -5 -9 -3 -4 7 5 8 4 11 0 6 -5 -4 -9 -18 -10 -31 0
-17 4 -22 15 -18 13 5 13 3 2 -11 -8 -9 -11 -25 -7 -38 5 -14 2 -25 -6 -30
-12 -7 -11 -9 0 -9 11 0 10 -4 -4 -13 -13 -10 -15 -16 -6 -21 9 -6 9 -11 -1
-24 -10 -12 -10 -14 0 -8 6 4 12 3 12 -1 0 -5 -6 -15 -12 -22 -10 -11 -10 -13
0 -7 6 4 12 3 12 -1 0 -5 -6 -15 -12 -22 -8 -8 -8 -11 -2 -8 7 4 12 -3 12 -18
0 -14 -4 -22 -9 -19 -5 3 -6 -1 -3 -9 2 -7 0 -26 -6 -41 -6 -17 -6 -25 0 -21
12 8 12 8 1 -33 -6 -18 -6 -30 -1 -27 12 8 7 -48 -5 -57 -6 -5 -5 -8 3 -8 6 0
12 -5 12 -11 0 -5 -4 -8 -9 -4 -6 3 -9 -7 -7 -22 1 -16 -2 -34 -8 -42 -8 -11
-8 -13 1 -8 8 5 11 0 10 -13 -1 -11 -4 -20 -7 -20 -3 0 -6 -9 -6 -20 0 -11 6
-20 14 -20 10 0 9 -4 -3 -16 -11 -12 -13 -19 -5 -24 14 -9 1 -42 -14 -34 -6 3
-2 -2 8 -10 18 -15 18 -16 2 -16 -11 0 -15 -4 -9 -12 12 -21 12 -38 0 -38 -8
0 -9 -3 -1 -8 18 -12 25 -42 9 -36 -10 4 -13 0 -10 -15 2 -12 0 -21 -5 -21 -5
0 -7 -7 -4 -15 4 -8 11 -12 18 -9 6 3 2 -2 -8 -10 -15 -12 -16 -16 -5 -16 12
0 12 -2 -1 -10 -12 -8 -12 -10 -1 -10 10 0 11 -3 2 -14 -8 -10 -9 -16 -1 -21
5 -3 10 -11 10 -16 0 -6 -4 -7 -10 -4 -7 4 -7 -3 0 -20 7 -19 7 -24 -2 -19 -7
5 -9 1 -6 -13 3 -12 2 -27 -3 -34 -5 -8 -3 -17 4 -21 9 -6 8 -8 -3 -8 -13 0
-13 -1 0 -11 11 -8 12 -12 3 -16 -10 -3 -10 -10 -2 -25 9 -16 8 -19 -2 -13 -9
6 -11 3 -6 -8 3 -9 1 -19 -4 -23 -8 -4 -8 -9 0 -17 7 -7 7 -16 0 -29 -7 -13
-7 -23 0 -32 7 -9 7 -16 -2 -26 -10 -10 -9 -11 2 -5 15 8 13 5 -17 -43 -12
-18 -17 -20 -29 -10 -11 9 -16 9 -23 -1 -6 -11 -9 -11 -14 0 -5 12 -7 12 -12
0 -5 -11 -8 -11 -15 0 -7 12 -12 12 -30 1 -11 -8 -18 -9 -14 -3 3 6 2 11 -4
11 -5 0 -13 -5 -16 -10 -4 -7 -12 -7 -18 -2 -7 5 -27 9 -45 10 -25 2 -31 -1
-26 -10 4 -7 -2 -5 -14 6 -12 10 -19 23 -16 27 3 5 -1 9 -8 9 -9 0 -9 3 2 10
11 7 11 10 2 10 -10 0 -10 5 -2 20 8 15 8 20 -1 20 -8 0 -7 5 2 17 12 15 12
16 -1 8 -13 -8 -13 -7 -1 8 10 13 10 17 1 17 -10 0 -10 3 0 15 10 12 10 15 0
15 -10 0 -10 3 0 15 10 12 10 15 -1 16 -12 0 -12 1 0 6 11 5 11 7 0 14 -12 7
-11 9 1 9 13 0 13 2 1 9 -12 8 -12 12 -2 25 11 13 11 16 0 17 -12 0 -12 1 0 6
11 5 11 7 0 14 -12 8 -11 11 1 19 13 9 13 10 0 10 -12 0 -12 2 -2 9 14 9 13
32 -3 43 -6 5 -4 8 5 8 13 0 13 1 0 10 -13 9 -13 10 0 10 13 0 13 1 0 10 -13
9 -13 11 0 20 13 9 13 10 0 10 -13 0 -13 1 0 10 13 9 13 11 1 19 -12 8 -12 12
-2 25 11 13 11 16 0 17 -12 0 -12 1 0 6 11 5 11 7 0 14 -12 7 -11 9 1 9 13 0
13 2 1 9 -12 8 -12 12 -2 25 11 13 11 16 0 17 -12 0 -12 1 0 6 11 5 11 7 0 14
-12 8 -11 11 1 19 13 9 13 10 0 10 -12 0 -12 2 -2 9 14 9 13 32 -3 43 -6 5 -4
8 5 8 13 0 13 1 0 10 -13 9 -13 10 0 10 13 0 13 1 0 10 -13 9 -13 11 0 20 13
9 13 10 0 10 -13 0 -13 1 0 10 13 9 13 11 1 19 -12 8 -12 12 -2 25 11 13 11
16 0 17 -12 0 -12 1 0 6 11 5 11 7 0 14 -12 8 -11 11 1 19 13 9 13 10 0 10
-12 0 -12 2 -2 9 14 9 13 32 -3 43 -6 5 -4 8 5 8 13 0 13 1 0 10 -13 9 -13 10
0 10 13 0 13 1 0 10 -13 9 -13 11 0 20 13 9 13 10 0 10 -13 0 -13 1 0 10 13 9
13 10 0 10 -13 0 -13 1 0 10 13 9 13 10 0 10 -12 0 -12 2 -2 9 14 9 13 32 -3
43 -6 5 -4 8 5 8 13 0 13 1 0 10 -13 9 -13 10 0 10 13 0 13 1 0 10 -13 9 -13
11 0 20 13 9 13 10 0 10 -9 0 -11 3 -5 8 14 10 17 32 4 32 -8 0 -7 6 2 17 12
15 12 16 -1 8 -13 -8 -13 -7 -1 8 10 13 10 17 1 17 -10 0 -10 3 0 15 10 12 10
15 0 15 -10 0 -10 3 0 15 10 12 10 15 -1 16 -12 0 -12 1 0 6 11 5 11 7 0 14
-12 7 -11 9 1 9 13 0 13 2 1 9 -12 8 -12 12 -2 25 11 13 11 16 0 17 -12 0 -12
1 0 6 11 5 11 7 0 14 -12 8 -11 11 1 19 13 9 13 10 0 10 -12 0 -12 2 -2 9 14
9 13 32 -3 43 -6 5 -4 8 5 8 13 0 13 1 0 10 -13 9 -13 10 0 10 13 0 13 1 0 10
-13 9 -13 11 0 20 13 9 13 10 0 10 -13 0 -13 1 0 10 13 9 13 11 1 19 -12 8
-12 12 -2 25 11 13 11 16 0 16 -11 0 -11 2 1 10 12 8 12 10 1 10 -11 0 -11 3
-1 15 10 12 10 15 0 15 -9 0 -9 4 1 17 12 15 12 16 -1 8 -13 -8 -13 -7 -1 8
10 13 10 17 1 17 -10 0 -10 3 0 15 10 12 10 15 0 15 -10 0 -10 3 0 15 10 12
10 15 -1 16 -12 0 -12 1 0 6 11 5 11 7 0 14 -12 8 -11 11 1 19 13 9 13 10 0
10 -10 0 -11 3 -4 8 14 9 14 42 0 42 -6 0 -5 5 2 12 8 8 8 15 2 23 -11 13 -3
48 9 41 4 -3 8 4 8 15 1 11 -3 17 -9 13 -7 -5 -7 -1 0 12 8 14 6 21 -6 31 -15
12 -15 12 2 7 16 -6 17 -5 6 16 -8 15 -8 20 -1 16 6 -4 11 -3 11 3 0 5 -6 11
-12 14 -10 3 -10 7 1 20 11 14 11 17 0 17 -11 0 -11 2 1 10 13 9 13 10 0 10
-9 0 -11 3 -5 8 14 9 13 65 0 74 -6 5 -5 8 3 8 18 0 15 21 -5 36 -17 13 -17
14 1 8 16 -6 17 -5 6 16 -8 15 -8 20 -1 16 6 -4 11 -3 11 3 0 5 -6 11 -12 14
-10 3 -10 7 1 20 7 10 9 17 4 17 -5 0 -9 9 -9 20 0 14 5 19 16 15 9 -3 8 1 -4
10 -12 9 -15 15 -7 15 11 0 11 3 0 17 -10 11 -10 14 -1 9 6 -4 12 -2 12 3 0 6
-6 11 -12 11 -9 0 -9 3 -3 8 14 9 13 65 0 74 -6 5 -5 8 3 8 18 0 15 21 -5 36
-17 13 -17 14 1 8 16 -6 17 -5 6 16 -8 15 -8 20 -1 16 6 -4 11 -3 11 3 0 5 -6
11 -12 14 -10 3 -10 7 1 20 7 10 9 17 4 17 -5 0 -9 9 -9 20 0 12 5 19 13 16 7
-3 10 1 6 9 -3 8 -8 13 -13 10 -4 -2 -5 7 -2 20 2 14 8 22 13 19 5 -3 6 2 3
10 -3 9 -1 16 6 16 6 0 8 5 5 10 -3 6 -1 10 5 10 6 0 8 5 5 10 -4 6 -2 9 3 8
5 -2 19 8 31 22 13 14 20 18 16 10 -5 -12 -4 -12 7 1 7 9 19 14 27 11 8 -3 11
0 7 7 -5 7 3 10 23 7 23 -2 31 1 31 13 0 9 3 12 8 6 4 -5 13 -11 20 -12z
m-1612 -52 c5 8 3 10 -6 4 -9 -5 -11 -4 -6 3 5 8 13 9 25 2 10 -5 21 -7 23 -4
3 2 18 -2 33 -10 16 -8 32 -13 37 -10 4 3 8 0 8 -5 0 -6 7 -11 15 -11 8 0 15
-4 15 -10 0 -5 6 -10 14 -10 7 0 20 -8 27 -17 13 -17 13 -17 -6 -3 -19 14 -19
14 -6 -2 7 -10 19 -18 26 -18 8 0 11 -8 8 -20 -3 -12 0 -20 7 -20 8 0 11 -10
8 -29 -3 -20 -1 -28 6 -24 6 4 5 -1 -3 -10 -11 -14 -11 -17 0 -17 11 0 11 -2
-1 -10 -8 -5 -10 -10 -3 -10 6 0 10 -8 8 -17 -1 -10 2 -24 8 -30 6 -9 5 -13
-4 -13 -12 0 -12 -2 0 -9 10 -6 10 -10 1 -16 -9 -6 -9 -10 1 -16 12 -7 11 -9
0 -9 -11 0 -10 -4 5 -16 10 -8 14 -13 8 -10 -7 3 -14 -1 -18 -9 -3 -8 -1 -15
5 -15 6 0 8 -9 4 -21 -5 -14 -3 -19 3 -15 6 3 14 1 18 -5 4 -8 3 -9 -4 -5 -7
4 -13 1 -13 -6 -1 -7 -2 -20 -3 -28 -1 -8 2 -23 7 -32 5 -12 3 -18 -5 -19 -10
0 -10 -2 0 -6 6 -2 12 -9 12 -14 0 -6 -6 -7 -12 -3 -7 4 -5 -2 5 -14 11 -12
16 -26 11 -33 -4 -7 -8 -28 -9 -46 -1 -24 3 -33 14 -33 14 0 14 -1 1 -10 -11
-7 -12 -12 -3 -21 8 -8 9 -19 3 -35 -7 -18 -5 -26 8 -33 15 -9 15 -10 -3 -11
-11 -1 -15 -4 -8 -6 7 -3 10 -11 7 -19 -3 -7 0 -16 6 -20 8 -5 7 -11 -2 -23
-10 -12 -10 -14 0 -8 15 9 15 1 2 -25 -9 -15 -7 -21 5 -25 14 -6 14 -8 -2 -21
-10 -8 -12 -11 -4 -7 11 5 13 3 7 -11 -4 -11 0 -25 11 -37 16 -18 16 -18 0
-12 -21 8 -22 0 -1 -20 12 -13 13 -16 1 -16 -7 0 -14 -7 -14 -15 0 -8 4 -12 8
-10 4 3 9 -2 12 -10 4 -9 1 -12 -9 -8 -18 7 -18 -2 2 -21 13 -14 13 -16 1 -16
-10 0 -13 -7 -10 -20 3 -11 10 -17 17 -13 6 4 5 -1 -3 -10 -13 -16 -8 -22 13
-18 5 1 5 -4 -1 -11 -14 -18 -24 -50 -14 -44 5 3 9 -7 8 -22 0 -66 7 -128 17
-134 7 -5 3 -8 -8 -8 -20 0 -20 0 0 -16 10 -8 12 -12 4 -8 -12 6 -13 4 -2 -7
14 -15 17 -33 4 -25 -10 6 -9 -30 1 -40 4 -4 1 -14 -6 -22 -10 -13 -9 -14 2
-7 11 6 13 3 9 -13 -4 -12 -2 -22 3 -22 5 0 9 -5 9 -11 0 -5 -5 -7 -11 -3 -6
3 -4 -5 6 -19 14 -22 14 -27 2 -38 -12 -12 -12 -16 2 -27 9 -7 11 -11 4 -8 -6
4 -14 2 -18 -4 -3 -5 -1 -10 5 -10 7 0 9 -8 5 -21 -5 -15 -4 -19 5 -14 14 9
10 -27 -5 -37 -6 -5 -5 -8 2 -8 7 0 12 -11 11 -25 -1 -14 -5 -25 -9 -25 -3 0
-6 -7 -6 -15 0 -12 3 -12 15 -2 13 10 14 9 4 -10 -9 -16 -9 -24 -1 -29 8 -4 7
-9 -2 -15 -11 -7 -9 -9 6 -9 12 0 16 -3 9 -8 -13 -8 -15 -114 -2 -106 4 3 8 0
8 -5 0 -6 -6 -11 -12 -12 -10 0 -10 -2 0 -6 14 -6 16 -39 2 -48 -6 -4 -4 -15
6 -30 11 -17 12 -25 3 -31 -9 -5 -7 -11 6 -21 11 -7 14 -13 9 -13 -5 0 -11
-11 -12 -25 -1 -14 4 -25 10 -25 9 0 9 -3 0 -12 -9 -9 -7 -15 6 -25 9 -8 12
-12 6 -9 -14 7 -27 -21 -15 -29 13 -7 10 -107 -3 -124 -7 -9 -7 -12 -1 -9 6 4
17 -2 24 -14 7 -11 8 -17 3 -14 -5 3 -9 -7 -8 -24 0 -17 5 -30 10 -30 6 0 1
-6 -10 -14 -17 -13 -17 -15 -2 -21 17 -7 18 -21 4 -44 -6 -9 -5 -12 1 -8 6 4
13 -2 16 -13 3 -11 1 -18 -3 -15 -5 3 -7 -11 -4 -32 3 -21 5 -48 5 -61 -1 -14
3 -21 10 -16 8 5 8 1 0 -14 -14 -27 -14 -35 1 -26 7 5 8 3 2 -7 -12 -20 -16
-51 -5 -45 11 7 8 -8 -8 -48 -9 -23 -14 -26 -26 -16 -12 10 -15 10 -15 0 0 -6
-6 -10 -12 -7 -7 2 -21 0 -30 -4 -9 -5 -19 -5 -22 0 -3 4 -18 7 -33 5 -15 -1
-31 3 -35 9 -6 9 -8 9 -8 0 0 -9 -11 -11 -35 -8 -25 3 -34 1 -29 -7 4 -6 -3
-4 -16 5 -17 12 -27 13 -36 6 -10 -8 -12 -6 -9 10 2 12 0 21 -4 21 -5 0 -7 14
-5 32 2 17 -2 38 -9 46 -9 13 -9 14 1 8 6 -4 12 -2 12 3 0 6 -4 11 -10 11 -5
0 -6 7 -3 17 5 12 3 14 -8 8 -11 -7 -11 -5 1 10 12 15 13 19 1 23 -11 4 -11 6
0 13 8 5 10 9 4 9 -5 0 -10 18 -9 40 0 22 -3 40 -7 40 -4 0 -5 10 -2 23 4 18
3 19 -6 7 -7 -9 -11 -10 -11 -3 0 6 5 15 10 18 7 4 6 13 -1 27 -9 16 -8 19 3
13 10 -6 11 -5 1 6 -7 7 -13 17 -13 22 0 4 6 5 13 1 8 -5 7 -2 -2 9 -8 10 -11
20 -7 24 3 3 -1 17 -9 29 -10 16 -11 25 -4 30 8 4 7 9 -2 15 -10 6 -11 9 -1 9
6 0 12 5 12 11 0 5 -6 7 -12 3 -10 -6 -10 -4 0 7 18 19 15 32 -5 24 -14 -5
-15 -4 -6 6 9 9 9 17 2 32 -8 14 -8 18 0 13 6 -4 11 -2 11 3 0 6 -4 11 -9 11
-5 0 -8 12 -5 27 3 15 0 30 -8 34 -10 7 -10 9 2 9 13 0 13 1 0 10 -13 9 -13
10 0 10 13 0 13 2 1 9 -8 5 -15 19 -16 30 -1 11 3 17 8 14 13 -8 -3 40 -17 49
-7 5 -6 8 4 8 10 0 11 3 3 11 -8 8 -8 20 -2 36 6 18 6 22 -3 17 -8 -5 -9 -2
-5 9 3 9 2 19 -2 21 -5 3 -6 17 -3 31 3 16 0 25 -8 25 -10 0 -10 3 0 15 10 12
10 15 0 15 -10 0 -10 4 1 16 10 13 10 17 -1 24 -7 4 -10 15 -7 24 4 9 1 16 -6
16 -8 0 -6 4 3 10 11 7 11 10 2 10 -10 0 -10 5 -1 22 10 18 9 20 -6 14 -15 -5
-16 -4 -5 9 10 12 10 15 -1 15 -11 0 -11 2 1 10 12 8 12 10 1 10 -10 0 -11 3
-2 14 10 11 8 17 -6 25 -14 8 -15 11 -3 11 12 0 10 4 -4 15 -15 11 -16 15 -5
15 8 0 15 9 15 19 0 11 -3 18 -7 15 -12 -7 -18 23 -6 35 8 8 7 11 -4 11 -12 0
-12 2 1 10 12 8 12 10 -5 10 -12 0 -16 3 -9 8 6 4 9 16 7 27 -3 11 -4 33 -3
49 0 15 -5 35 -11 42 -9 11 -8 14 1 14 9 0 9 4 -1 17 -12 15 -12 16 1 8 13 -8
13 -6 1 8 -7 9 -11 24 -7 32 3 8 1 15 -4 15 -6 0 -10 5 -10 11 0 5 4 8 8 5 14
-8 7 31 -9 50 -8 10 -9 15 -4 12 6 -4 11 2 11 13 0 10 -4 19 -8 19 -5 0 -4 10
3 21 8 15 8 19 0 15 -6 -4 -11 -1 -12 6 -1 7 -2 22 -3 33 0 11 3 29 8 39 6 15
5 18 -7 13 -12 -4 -14 1 -10 25 3 23 1 28 -9 22 -7 -4 -5 1 4 12 12 14 14 24
7 37 -7 12 -7 17 1 17 7 0 5 6 -3 15 -10 9 -14 26 -11 45 3 16 1 30 -4 30 -5
0 -8 12 -7 28 1 15 -3 33 -9 41 -8 11 -8 13 1 8 9 -6 10 0 3 22 -5 17 -4 33 2
39 6 6 6 12 -3 17 -8 6 -10 4 -4 -6 5 -8 4 -10 0 -6 -14 12 -15 38 -2 30 7 -4
7 -1 -1 9 -9 11 -9 18 -3 23 7 4 5 15 -7 33 -9 14 -12 23 -5 19 7 -5 9 -1 6
13 -3 11 -9 17 -14 14 -5 -3 -9 0 -9 5 0 6 5 11 10 11 6 0 10 9 10 20 0 11 -4
20 -9 20 -10 0 -9 25 2 36 3 3 -2 18 -11 32 -9 15 -11 23 -4 19 6 -5 12 -4 12
2 0 6 -4 11 -10 11 -5 0 -10 5 -10 11 0 5 6 7 13 3 6 -4 4 2 -6 13 -12 14 -15
23 -8 28 6 3 11 11 11 16 0 6 -4 8 -9 5 -12 -8 -8 27 4 36 6 5 5 8 -3 8 -7 0
-12 8 -10 18 1 9 -1 23 -6 31 -7 10 -5 12 4 6 9 -5 10 -2 5 14 -4 14 -2 21 6
21 7 0 5 6 -6 13 -12 9 -14 16 -7 21 6 4 9 13 5 21 -3 8 0 15 7 15 7 0 10 8 7
20 -3 11 -2 18 3 15 4 -3 14 3 21 12 12 14 12 16 -1 8 -8 -5 0 8 19 28 19 20
37 34 40 32 2 -3 -4 -12 -15 -21 -18 -14 -18 -15 4 -4 12 6 22 15 22 21 0 6 5
7 10 4 6 -3 10 -1 10 5 0 6 5 8 10 5 6 -3 10 0 10 7 0 9 3 9 10 -2 9 -14 15
-6 10 15 -1 5 7 1 18 -8 15 -14 22 -15 28 -6z m2474 5 c14 1 34 -6 44 -15 16
-13 18 -13 12 -1 -5 9 -2 8 7 -2 8 -10 17 -15 20 -11 4 3 7 1 7 -6 0 -7 5 -9
10 -6 6 3 10 1 10 -4 0 -6 7 -11 16 -11 8 0 12 -4 9 -10 -3 -5 -1 -10 4 -10 6
0 11 -5 11 -11 0 -7 8 -18 18 -26 9 -8 11 -11 3 -7 -10 5 -12 3 -5 -7 5 -8 7
-22 6 -31 -2 -10 2 -18 8 -18 6 0 8 5 4 12 -4 7 -3 8 5 4 6 -4 8 -12 4 -18 -3
-7 -8 -30 -9 -52 -2 -23 -5 -52 -7 -66 -3 -14 1 -31 7 -39 8 -11 8 -13 -1 -8
-6 4 -14 3 -18 -3 -3 -5 -1 -10 4 -10 6 0 11 -5 11 -11 0 -5 -4 -8 -9 -5 -5 3
-12 -1 -15 -10 -4 -10 -2 -13 6 -8 7 5 9 2 5 -8 -3 -9 0 -21 6 -28 9 -10 9
-11 0 -6 -16 9 -22 -15 -11 -38 8 -14 7 -17 -3 -11 -9 6 -11 3 -6 -8 4 -10 1
-17 -6 -18 -9 0 -8 -2 1 -6 10 -4 10 -8 0 -21 -7 -9 -8 -13 -2 -9 6 3 11 0 11
-8 0 -8 -4 -12 -9 -9 -5 3 -6 -9 -3 -26 3 -17 2 -29 -3 -26 -5 3 -9 -1 -9 -9
0 -8 4 -12 8 -10 4 3 10 -2 13 -11 3 -8 2 -13 -3 -10 -5 3 -14 -1 -21 -9 -11
-13 -10 -14 6 -9 15 6 17 4 7 -6 -6 -7 -9 -19 -6 -28 5 -11 2 -13 -6 -7 -10 6
-11 3 -1 -15 11 -20 10 -22 -4 -17 -12 5 -15 3 -9 -6 12 -19 12 -37 0 -37 -6
0 -2 -7 9 -16 10 -8 14 -13 8 -10 -7 3 -15 -1 -18 -10 -4 -10 -2 -13 7 -8 9 6
9 4 1 -7 -6 -8 -12 -34 -13 -59 -2 -25 -8 -51 -14 -59 -9 -12 -9 -13 1 -7 6 4
12 3 12 -3 0 -5 -5 -13 -10 -16 -7 -4 -6 -13 1 -27 9 -16 8 -19 -2 -13 -9 6
-11 3 -6 -8 3 -9 1 -18 -6 -21 -7 -2 -4 -5 6 -5 9 -1 17 -6 17 -12 0 -5 -4 -8
-9 -5 -5 3 -11 -1 -15 -9 -3 -8 0 -15 7 -16 9 0 9 -2 -1 -6 -6 -2 -9 -9 -6
-15 4 -6 0 -14 -7 -19 -12 -7 -12 -9 0 -9 11 0 11 -3 0 -17 -15 -17 -14 -19 4
-42 9 -12 9 -13 0 -7 -8 4 -13 2 -14 -6 -4 -78 -6 -95 -12 -105 -5 -8 -3 -13
5 -13 9 0 9 -3 -2 -10 -12 -8 -12 -10 -1 -10 10 0 11 -3 2 -14 -6 -7 -9 -21
-5 -30 4 -10 1 -16 -7 -16 -10 0 -10 -3 -1 -12 9 -9 8 -16 -5 -30 -15 -17 -15
-18 3 -18 19 -1 19 -1 0 -12 -19 -11 -19 -11 0 -26 16 -12 16 -14 2 -9 -10 4
-18 2 -18 -3 0 -6 5 -10 11 -10 8 0 8 -4 0 -14 -9 -11 -9 -15 1 -19 8 -4 7 -6
-4 -6 -15 -1 -16 -5 -8 -27 7 -16 7 -23 0 -19 -14 9 -13 -8 2 -23 9 -9 7 -13
-6 -18 -14 -5 -15 -9 -4 -15 10 -7 10 -9 -2 -9 -13 0 -13 -1 0 -10 13 -9 13
-10 0 -10 -13 0 -13 -1 0 -10 9 -6 11 -10 3 -10 -7 0 -10 -7 -6 -17 4 -9 2
-14 -3 -10 -5 3 -10 -3 -10 -13 0 -10 4 -16 8 -14 10 6 -1 -26 -15 -43 -7 -9
-4 -13 9 -13 17 0 17 -1 -2 -16 -10 -8 -12 -12 -4 -8 12 6 13 4 3 -7 -16 -17
-17 -33 -1 -23 6 4 4 -3 -5 -16 -12 -17 -14 -28 -6 -43 9 -15 8 -18 -2 -12 -9
6 -11 4 -6 -7 3 -9 3 -19 0 -22 -11 -11 -14 -78 -3 -71 6 3 7 0 4 -9 -3 -9
-10 -14 -14 -11 -4 3 -7 -6 -6 -19 0 -13 4 -22 9 -19 4 2 7 -1 7 -6 0 -6 -4
-11 -8 -11 -5 0 -9 -6 -9 -12 0 -7 -4 -22 -9 -32 -6 -15 -4 -17 7 -11 8 5 5
-2 -6 -14 -11 -12 -15 -22 -10 -21 21 5 29 -1 15 -10 -9 -5 -15 -25 -16 -47 0
-21 -4 -47 -9 -57 -7 -15 -5 -17 6 -11 12 8 12 6 0 -8 -11 -14 -11 -17 0 -17
8 0 6 -6 -7 -16 -10 -8 -13 -13 -6 -9 6 3 12 1 12 -4 0 -6 -4 -11 -9 -11 -4 0
-7 -14 -5 -31 2 -16 0 -28 -4 -25 -5 3 -9 -1 -9 -9 0 -8 5 -15 11 -15 6 0 4
-5 -4 -10 -13 -9 -13 -11 0 -20 11 -7 11 -10 2 -10 -7 0 -10 -4 -7 -10 3 -5 1
-10 -5 -10 -8 0 -7 -6 1 -21 8 -15 8 -19 0 -15 -6 4 -11 0 -11 -9 0 -10 5 -13
13 -9 6 4 4 -2 -6 -13 -11 -13 -14 -23 -8 -27 7 -4 7 -15 1 -31 -6 -16 -6 -27
2 -31 7 -5 5 -11 -6 -20 -12 -8 -14 -14 -6 -19 8 -5 6 -11 -6 -19 -13 -10 -14
-15 -4 -21 9 -6 11 -4 5 5 -6 9 -4 11 4 6 9 -6 8 -13 -6 -29 -17 -20 -17 -20
2 -13 17 6 16 4 -5 -20 -14 -15 -20 -24 -14 -21 6 3 11 0 11 -7 0 -9 -9 -13
-24 -10 -18 4 -23 1 -17 -8 6 -10 5 -10 -7 -2 -16 13 -77 13 -98 0 -9 -6 -12
-5 -7 2 4 7 -1 10 -14 9 -11 -1 -20 -4 -20 -7 0 -3 -9 -6 -20 -7 -13 -1 -18 2
-13 10 5 8 2 8 -9 -1 -8 -7 -24 -9 -33 -5 -14 5 -16 3 -10 -8 8 -12 6 -12 -8
0 -9 7 -17 10 -17 5 -1 -15 -24 30 -25 46 0 8 4 21 9 28 7 9 5 16 -5 23 -8 5
-9 9 -3 9 6 0 10 10 8 23 -1 12 -3 22 -4 22 -1 0 -3 10 -4 22 -1 12 1 20 6 17
4 -3 8 4 8 16 0 12 4 19 8 16 5 -3 6 8 4 24 -3 19 -8 27 -16 23 -7 -4 -6 -1 1
9 7 8 10 18 6 21 -3 4 0 13 7 22 10 12 10 15 -1 15 -9 0 -10 3 -4 8 13 9 14
72 1 72 -5 0 -1 7 10 16 10 8 13 13 7 9 -7 -3 -13 -1 -13 4 0 6 4 11 9 11 4 0
6 12 4 28 -5 31 -5 37 -1 72 2 14 8 29 13 33 6 6 5 10 -4 14 -11 4 -11 7 0 13
10 7 10 12 -2 26 -9 11 -9 15 -1 10 6 -4 12 -3 12 3 0 5 -5 13 -11 17 -8 4 -8
9 0 17 14 14 14 30 0 22 -7 -5 -7 -1 0 14 6 12 16 31 22 42 9 19 9 21 -6 16
-11 -5 -14 -3 -8 5 4 7 8 27 8 44 1 17 5 37 10 44 5 9 4 15 -4 18 -10 3 -10 6
-2 12 9 5 9 14 1 35 -10 26 -9 27 6 14 16 -13 16 -12 7 5 -6 10 -8 27 -6 37 3
12 0 19 -8 19 -8 0 -5 6 7 16 10 8 14 13 8 10 -7 -3 -14 1 -18 9 -3 8 0 14 7
12 7 -1 11 10 10 31 -1 21 2 30 9 26 7 -5 8 -2 2 7 -13 22 -16 51 -3 43 6 -3
3 6 -7 22 -13 19 -14 25 -5 20 11 -7 13 -4 9 12 -4 12 -3 20 1 17 12 -7 8 79
-4 87 -6 5 -2 8 9 8 16 0 17 3 8 12 -15 15 -16 32 -2 23 14 -9 12 8 -2 24 -9
10 -9 12 -1 7 9 -5 11 8 9 46 -2 29 2 59 8 67 8 11 8 13 -1 7 -15 -8 -16 -5
-7 18 3 9 9 14 14 11 4 -2 5 7 2 20 -2 15 -9 22 -16 18 -6 -3 -6 0 2 8 6 7 12
19 12 27 0 8 -5 10 -12 6 -10 -6 -10 -4 0 8 7 9 10 29 7 48 -4 24 -2 30 7 24
8 -5 7 -1 -2 11 -13 17 -13 18 1 13 13 -5 16 -2 12 13 -3 11 -10 16 -17 12 -6
-4 -5 1 3 10 11 14 11 17 0 18 -8 0 -5 4 6 9 11 5 15 9 10 9 -13 1 -15 51 -2
51 5 0 7 16 5 35 -2 19 -1 35 3 35 4 0 5 9 2 19 -3 10 1 29 7 41 7 13 8 20 2
16 -6 -4 -10 2 -9 14 1 11 4 20 7 20 4 0 7 7 7 15 0 8 -4 12 -9 9 -12 -7 -5
39 7 48 6 5 6 8 -1 8 -6 0 -10 10 -9 23 2 12 8 21 14 19 7 -1 9 2 5 9 -4 7 -7
26 -6 43 0 17 -4 36 -10 43 -8 11 -7 12 8 6 16 -5 17 -4 7 8 -16 20 -17 31 -2
40 16 9 21 39 7 39 -6 0 -5 6 2 15 9 10 9 15 1 15 -12 0 -10 27 3 49 7 11 6
12 -5 6 -11 -7 -12 -6 -2 7 7 8 10 18 6 21 -3 4 -1 7 6 7 7 0 9 5 6 10 -4 6
-12 8 -18 4 -7 -3 -5 0 3 8 10 9 14 27 12 56 -2 29 1 42 10 42 9 0 9 3 -2 10
-11 7 -12 12 -3 21 9 9 9 18 2 32 -8 14 -8 18 0 13 6 -4 11 -2 11 3 0 6 -5 11
-11 11 -8 0 -8 4 -2 13 14 17 23 58 12 51 -5 -3 -6 2 -3 10 3 9 10 16 14 16 5
0 7 9 5 20 -3 13 0 18 7 14 8 -5 9 -1 4 11 -5 15 -4 16 9 5 15 -12 21 -4 16
23 -1 5 4 7 11 4 7 -2 19 5 26 17 13 20 13 20 8 1 -6 -19 -5 -19 7 -3 8 10 17
15 20 11 4 -3 7 -2 7 3 0 5 8 10 18 10 9 1 26 5 36 9 15 7 18 5 12 -6 -4 -8
-1 -6 6 3 7 9 15 14 18 10 3 -4 16 -7 30 -6z m150 -3080 c0 -2 -8 -10 -17 -17
-16 -13 -17 -12 -4 4 13 16 21 21 21 13z"/>
<path d="M2325 840 c-3 -5 -1 -10 4 -10 6 0 11 5 11 10 0 6 -2 10 -4 10 -3 0
-8 -4 -11 -10z"/>
</g>
</svg>
